<?xml version="1.0" standalone="no"?>
<!DOCTYPE svg PUBLIC "-//W3C//DTD SVG 1.1//EN" "http://www.w3.org/Graphics/SVG/1.1/DTD/svg11.dtd" >
<!--
2013-9-30: Created.
-->
<svg>
<metadata>
Created by iconfont
</metadata>
<defs>

<font id="iconfont" horiz-adv-x="1024" >
  <font-face
    font-family="iconfont"
    font-weight="500"
    font-stretch="normal"
    units-per-em="1024"
    ascent="896"
    descent="-128"
  />
    <missing-glyph />
    
    <glyph glyph-name="tuikuan" unicode="&#59114;" d="M695.169024 476.119808c-6.72768 6.729728-15.675392 10.436608-25.194496 10.436608-9.519104 0-18.47296-3.70688-25.198592-10.436608l-93.804544-93.804544-93.77792 93.77792c-6.73792 6.731776-15.681536 10.436608-25.20064 10.436608-9.519104 0-18.468864-3.704832-25.198592-10.436608-13.89568-13.893632-13.89568-36.499456 0-50.395136l58.126336-58.13248-56.71936 0c-3.813376 0-6.899712-3.09248-6.899712-6.893568l0-57.481216c0-3.807232 3.086336-6.899712 6.899712-6.899712l107.145216 0 0-47.712256-107.145216 0c-3.813376 0-6.899712-3.09248-6.899712-6.899712l0-57.481216c0-3.807232 3.086336-6.899712 6.899712-6.899712l107.145216 0 0-107.149312c0-19.65056 15.986688-35.637248 35.637248-35.637248s35.637248 15.986688 35.637248 35.637248l0 107.149312 107.149312 0c3.807232 0 6.899712 3.09248 6.899712 6.899712l0 57.481216c0 3.807232-3.09248 6.899712-6.899712 6.899712l-107.149312 0L586.620928 296.29312l107.149312 0c3.807232 0 6.899712 3.09248 6.899712 6.899712l0 57.481216c0 3.807232-3.09248 6.893568-6.899712 6.893568l-56.75008 0 58.150912 58.150912C709.066752 439.614208 709.066752 462.226176 695.169024 476.119808L695.169024 476.119808zM986.824704 483.820288c-23.81824 56.313856-57.909248 106.883072-101.326848 150.300672-43.419648 43.419648-93.986816 77.50656-150.300672 101.322752-58.314752 24.666112-120.246272 37.175296-184.07424 37.175296-63.821824 0-125.751296-12.509184-184.064-37.175296-56.313856-23.814144-106.87488-57.909248-150.290432-101.322752-43.419648-43.419648-77.508608-93.986816-101.326848-150.300672-9.771008-23.097344-17.696768-47.003648-23.650304-71.299072l-23.566336 53.035008c-5.715968 12.857344-18.50368 21.174272-32.585728 21.174272-4.995072 0-9.859072-1.036288-14.452736-3.078144-8.697856-3.862528-15.372288-10.883072-18.788352-19.771392-3.416064-8.884224-3.1744-18.56512 0.690176-27.267072l73.0624-164.438016c0.370688-0.858112 0.790528-1.7408 1.263616-2.619392 0.0512-0.096256 0.1024-0.192512 0.1536-0.288768 0.425984-0.776192 0.837632-1.476608 1.257472-2.142208 0.03072-0.045056 0.075776-0.11264 0.116736-0.178176 0.350208-0.53248 0.73728-1.089536 1.14688-1.64864 0.157696-0.223232 0.354304-0.48128 0.55296-0.741376 0.274432-0.350208 0.54272-0.692224 0.827392-1.026048 0.385024-0.473088 0.817152-0.960512 1.253376-1.427456l0.116736-0.13312c0.212992-0.227328 0.432128-0.4608 0.649216-0.684032 0.229376-0.229376 0.47104-0.462848 0.710656-0.690176l0.090112-0.09216c0.301056-0.278528 0.60416-0.5632 0.909312-0.837632 0.264192-0.233472 0.505856-0.446464 0.751616-0.649216 0.415744-0.350208 0.872448-0.7168 1.339392-1.071104 0.141312-0.11264 0.258048-0.2048 0.370688-0.284672 0.62464-0.462848 1.275904-0.909312 1.984512-1.366016l0 0c0.04096-0.03072 0.09216-0.06144 0.13312-0.086016 0.628736-0.401408 1.294336-0.78848 1.97632-1.15712l0.221184-0.12288c1.452032-0.780288 2.955264-1.462272 4.472832-2.025472 0.034816-0.016384 0.07168-0.026624 0.106496-0.04096 0.649216-0.237568 1.329152-0.4608 2.070528-0.684032l0.219136-0.065536 0.192512-0.055296c0.679936-0.192512 1.31072-0.354304 1.918976-0.493568l0.024576-0.004096 0.294912-0.07168c0.04096-0.01024 0.086016-0.02048 0.131072-0.03072 0.67584-0.141312 1.39264-0.272384 2.121728-0.380928 0.243712-0.034816 0.497664-0.069632 0.751616-0.100352l0.13312-0.014336c0.432128-0.055296 0.858112-0.100352 1.284096-0.14336l0.147456-0.014336c0.305152-0.026624 0.60416-0.0512 0.909312-0.065536 0.432128-0.026624 0.866304-0.04096 1.308672-0.0512l0.098304-0.006144c0.237568-0.01024 0.477184-0.02048 0.714752-0.02048 0.940032 0 1.91488 0.045056 2.97984 0.13312l0.065536 0.006144c0.045056 0.006144 0.088064 0.008192 0.13312 0.008192 0.968704 0.09216 1.939456 0.223232 2.88768 0.387072 0.161792 0.03072 0.301056 0.055296 0.432128 0.075776 0.968704 0.18432 1.85344 0.380928 2.691072 0.60416 0.137216 0.034816 0.274432 0.075776 0.415744 0.12288 0.026624 0.004096 0.04096 0.008192 0.065536 0.014336 0.694272 0.202752 1.417216 0.432128 2.136064 0.68608l0.13312 0.045056c0.212992 0.069632 0.425984 0.147456 0.638976 0.229376 0.638976 0.237568 1.263616 0.495616 1.86368 0.759808 0.024576 0.01024 0.055296 0.02048 0.079872 0.036864 0.106496 0.045056 0.202752 0.096256 0.305152 0.147456 0.303104 0.137216 0.557056 0.258048 0.815104 0.385024 0.843776 0.415744 1.585152 0.813056 2.289664 1.222656 0.106496 0.06144 0.219136 0.126976 0.329728 0.198656l0.086016 0.0512c1.939456 1.16736 3.735552 2.492416 5.382144 3.954688l135.364608 118.597632c14.778368 12.949504 16.27136 35.510272 3.319808 50.292736-6.766592 7.72096-16.539648 12.152832-26.814464 12.152832-8.640512 0-16.975872-3.137536-23.474176-8.833024l-64.270336-56.303616c35.956736 186.978304 202.203136 325.709824 394.389504 325.709824 221.444096 0 401.598464-180.156416 401.598464-401.598464 0-221.433856-180.156416-401.584128-401.598464-401.584128-95.819776 0-188.602368 34.301952-261.26336 96.585728-6.457344 5.533696-14.692352 8.579072-23.185408 8.579072-10.426368 0-20.289536-4.538368-27.068416-12.447744-12.787712-14.91968-11.057152-37.459968 3.864576-50.24768 85.573632-73.351168 194.832384-113.739776 307.652608-113.739776 63.821824 0 125.755392 12.50304 184.07424 37.1712 56.313856 23.81824 106.881024 57.9072 150.294528 101.320704 43.419648 43.415552 77.508608 93.98272 101.326848 150.296576C1011.490816 173.994752 1024 235.924224 1024 299.746048 1024 363.567872 1011.48672 425.50144 986.824704 483.820288L986.824704 483.820288zM986.824704 483.820288"  horiz-adv-x="1024" />

    
    <glyph glyph-name="dingdan" unicode="&#58892;" d="M170.666667 896h682.666666c58.909867 0 106.666667-47.7568 106.666667-106.666667v-810.666666c0-58.909867-47.7568-106.666667-106.666667-106.666667H170.666667c-58.909867 0-106.666667 47.7568-106.666667 106.666667V789.333333C64 848.2432 111.7568 896 170.666667 896z m0-64c-23.563733 0-42.666667-19.102933-42.666667-42.666667v-810.666666c0-23.563733 19.102933-42.666667 42.666667-42.666667h682.666666c23.563733 0 42.666667 19.102933 42.666667 42.666667V789.333333c0 23.563733-19.102933 42.666667-42.666667 42.666667H170.666667z m341.333333-192c-17.6736 0-32 14.3264-32 32 0 17.6736 14.3264 32 32 32 17.6736 0 32-14.3264 32-32 0-17.6736-14.3264-32-32-32z m224 0c-17.6736 0-32 14.3264-32 32 0 17.6736 14.3264 32 32 32 17.6736 0 32-14.3264 32-32 0-17.6736-14.3264-32-32-32zM285.866667 320h260.266666c16.494933 0 29.866667-13.371733 29.866667-29.866667v-4.266666c0-16.494933-13.371733-29.866667-29.866667-29.866667H285.866667c-16.494933 0-29.866667 13.371733-29.866667 29.866667v4.266666c0 16.494933 13.371733 29.866667 29.866667 29.866667z m0 192h260.266666c16.494933 0 29.866667-13.371733 29.866667-29.866667v-4.266666c0-16.494933-13.371733-29.866667-29.866667-29.866667H285.866667c-16.494933 0-29.866667 13.371733-29.866667 29.866667v4.266666c0 16.494933 13.371733 29.866667 29.866667 29.866667z m0-384h452.266666c16.494933 0 29.866667-13.371733 29.866667-29.866667v-4.266666c0-16.494933-13.371733-29.866667-29.866667-29.866667H285.866667c-16.494933 0-29.866667 13.371733-29.866667 29.866667v4.266666c0 16.494933 13.371733 29.866667 29.866667 29.866667z m2.133333 512c-17.6736 0-32 14.3264-32 32 0 17.6736 14.3264 32 32 32 17.6736 0 32-14.3264 32-32 0-17.6736-14.3264-32-32-32z"  horiz-adv-x="1024" />

    
    <glyph glyph-name="qiantai" unicode="&#58893;" d="M480 0v64H106.666667C47.7568 64 0 111.7568 0 170.66666699999996V725.333333C0 784.2432 47.7568 832 106.666667 832h810.666666c58.909867 0 106.666667-47.7568 106.666667-106.666667v-554.666666c0-58.909867-47.7568-106.666667-106.666667-106.666667H544v-64h129.6c16.789333 0 30.4-13.610667 30.4-30.4v-3.2c0-16.789333-13.610667-30.4-30.4-30.4h-323.2c-16.789333 0-30.4 13.610667-30.4 30.4v3.2c0 16.789333 13.610667 30.4 30.4 30.4H480z m33.6 128H917.333333c23.563733 0 42.666667 19.102933 42.666667 42.666667v21.333333H64v-21.333333c0-23.563733 19.102933-42.666667 42.666667-42.666667h406.933333zM960 256V725.333333c0 23.563733-19.102933 42.666667-42.666667 42.666667H106.666667c-23.563733 0-42.666667-19.102933-42.666667-42.666667v-469.333333h896z"  horiz-adv-x="1024" />

    
    <glyph glyph-name="zhuke1" unicode="&#58894;" d="M512-128C229.229867-128 0 101.22986700000001 0 384S229.229867 896 512 896s512-229.229867 512-512-229.229867-512-512-512z m0 64c247.424 0 448 200.576 448 448S759.424 832 512 832 64 631.424 64 384s200.576-448 448-448z m0 448c-106.0384 0-192 85.9616-192 192s85.9616 192 192 192 192-85.9616 192-192-85.9616-192-192-192z m0 64c70.692267 0 128 57.307733 128 128s-57.307733 128-128 128-128-57.307733-128-128 57.307733-128 128-128zM693.707733 391.441067l-13.1584-1.824a34.250667 34.250667 0 0 1-5.912533-1.361067c-17.985067-5.861333-27.813333-25.192533-21.952-43.178667l-0.178133-3.047466C612.171733 368.562133 563.888 384 512 384c-141.384533 0-256-114.615467-256-256h-64c0 176.730667 143.269333 320 320 320 67.486933 0 130.093867-20.890667 181.707733-56.558933zM832 128h-64 64zM694.6272 344.30613300000005c-12.497067-12.497067-32.757333-12.497067-45.2544 0-12.497067 12.497067-12.497067 32.757333 0 45.2544 12.497067 12.497067 32.757333 12.497067 45.2544 0 12.497067-12.497067 12.497067-32.757333 0-45.2544zM224 96c-17.6736 0-32 14.3264-32 32 0 17.6736 14.3264 32 32 32 17.6736 0 32-14.3264 32-32 0-17.6736-14.3264-32-32-32z m448 96h128c17.6736 0 32-14.3264 32-32 0-17.6736-14.3264-32-32-32H672c-17.6736 0-32 14.3264-32 32 0 17.6736 14.3264 32 32 32z m0 128h128c17.6736 0 32-14.3264 32-32 0-17.6736-14.3264-32-32-32H672c-17.6736 0-32 14.3264-32 32 0 17.6736 14.3264 32 32 32z"  horiz-adv-x="1024" />

    
    <glyph glyph-name="qudao" unicode="&#58895;" d="M512-128C229.229867-128 0 101.22986700000001 0 384S229.229867 896 512 896s512-229.229867 512-512-229.229867-512-512-512z m0 64c247.424 0 448 200.576 448 448S759.424 832 512 832 64 631.424 64 384s200.576-448 448-448z m96 512c-88.365867 0-160 71.634133-160 160s71.634133 160 160 160 160-71.634133 160-160-71.634133-160-160-160z m0 64c53.019733 0 96 42.980267 96 96s-42.980267 96-96 96-96-42.980267-96-96 42.980267-96 96-96zM320 64c-70.692267 0-128 57.307733-128 128s57.307733 128 128 128 128-57.307733 128-128-57.307733-128-128-128z m0 64c35.346133 0 64 28.653867 64 64s-28.653867 64-64 64-64-28.653867-64-64 28.653867-64 64-64z m480 96c-53.019733 0-96 42.980267-96 96s42.980267 96 96 96 96-42.980267 96-96-42.980267-96-96-96z m0 64c17.6736 0 32 14.3264 32 32 0 17.6736-14.3264 32-32 32-17.6736 0-32-14.3264-32-32 0-17.6736 14.3264-32 32-32zM504.895015 520.404529l52.425731-36.708892-165.190014-235.915789-52.42573 36.708892 165.190013 235.915789ZM639.99953 503.024417l52.425731 36.708892 110.126676-157.277193-52.425731-36.708892-110.126676 157.277193Z"  horiz-adv-x="1024" />

    
    <glyph glyph-name="shezhi1" unicode="&#58897;" d="M512-128C229.229867-128 0 101.22986700000001 0 384S229.229867 896 512 896s512-229.229867 512-512-229.229867-512-512-512z m0 64c247.424 0 448 200.576 448 448S759.424 832 512 832 64 631.424 64 384s200.576-448 448-448z m128 189.937067V106.66666699999996c0-58.909867-47.7568-106.666667-106.666667-106.666667h-42.666666c-58.909867 0-106.666667 47.7568-106.666667 106.666667v19.2704a287.698133 287.698133 0 0 0-31.458133 18.1984l-16.72-9.653334c-51.0176-29.454933-116.253867-11.975467-145.7088 39.042134l-21.333334 36.951466c-29.454933 51.0176-11.975467 116.253867 39.042134 145.7088l16.741333 9.665067a292.407467 292.407467 0 0 0 0 36.3008l-16.741333 9.665067c-51.0176 29.454933-68.497067 94.6912-39.042134 145.7088l21.333334 36.951466c29.454933 51.0176 94.6912 68.497067 145.7088 39.042134l16.72-9.653334A287.698133 287.698133 0 0 0 384 642.0629329999999V661.333333c0 58.909867 47.7568 106.666667 106.666667 106.666667h42.666666c58.909867 0 106.666667-47.7568 106.666667-106.666667v-19.2704a287.698133 287.698133 0 0 0 31.458133-18.1984l16.72 9.653334c51.0176 29.454933 116.253867 11.975467 145.7088-39.042134l21.333334-36.951466c29.454933-51.0176 11.975467-116.253867-39.042134-145.7088l-16.741333-9.665067a292.407467 292.407467 0 0 0 0-36.3008l16.741333-9.665067c51.0176-29.454933 68.497067-94.6912 39.042134-145.7088l-21.333334-36.951466c-29.454933-51.0176-94.6912-68.497067-145.7088-39.042134l-16.72 9.653334A287.698133 287.698133 0 0 0 640 125.93706699999996z m-4.0224 71.463466l33.0688 22.026667 51.131733-29.52c20.4064-11.781333 46.501333-4.789333 58.282667 15.617067l21.333333 36.951466c11.7824 20.4064 4.7904 46.501333-15.616 58.282667l-51.0784 29.490133 2.4608 39.573334a228.408533 228.408533 0 0 1 0 28.356266l-2.4608 39.573334 51.0784 29.489066c20.4064 11.7824 27.3984 37.877333 15.616 58.283734l-21.333333 36.951466c-11.781333 20.4064-37.876267 27.3984-58.282667 15.616l-51.131733-29.52-33.0688 22.027734a223.698133 223.698133 0 0 1-24.459733 14.151466L576 602.4V661.333333c0 23.563733-19.102933 42.666667-42.666667 42.666667h-42.666666c-23.563733 0-42.666667-19.102933-42.666667-42.666667v-58.932266l-35.517867-17.650134a223.697067 223.697067 0 0 1-24.458666-14.151466l-33.069867-22.026667-51.131733 29.52c-20.4064 11.781333-46.501333 4.789333-58.282667-15.617067l-21.333333-36.951466c-11.7824-20.4064-4.7904-46.501333 15.616-58.282667l51.0784-29.490133-2.4608-39.573334a228.408533 228.408533 0 0 1 0-28.356266l2.4608-39.573334-51.0784-29.489066c-20.4064-11.7824-27.3984-37.877333-15.616-58.283734l21.333333-36.951466c11.781333-20.4064 37.876267-27.3984 58.282667-15.616l51.131733 29.52 33.0688-22.027734a223.698133 223.698133 0 0 1 24.459733-14.151466L448 165.60000000000002V106.66666699999996c0-23.563733 19.102933-42.666667 42.666667-42.666667h42.666666c23.563733 0 42.666667 19.102933 42.666667 42.666667V165.60000000000002l35.517867 17.650133a223.697067 223.697067 0 0 1 24.458666 14.151467zM512 256c-70.692267 0-128 57.307733-128 128s57.307733 128 128 128 128-57.307733 128-128-57.307733-128-128-128z m0 64c35.346133 0 64 28.653867 64 64s-28.653867 64-64 64-64-28.653867-64-64 28.653867-64 64-64z"  horiz-adv-x="1024" />

    
    <glyph glyph-name="tongji" unicode="&#58899;" d="M512-128C229.229867-128 0 101.22986700000001 0 384S229.229867 896 512 896s512-229.229867 512-512-229.229867-512-512-512z m0 64c247.424 0 448 200.576 448 448S759.424 832 512 832 64 631.424 64 384s200.576-448 448-448zM256 190.93333299999995h544c17.6736 0 32-14.3264 32-32 0-17.6736-14.3264-32-32-32H224c-17.6736 0-32 14.3264-32 32 0 0.178133 0.001067 0.356267 0.004267 0.533334a32.632533 32.632533 0 0 0-0.004267 0.533333V608c0 17.6736 14.3264 32 32 32 17.6736 0 32-14.3264 32-32v-417.066667zM523.646933 524.5727999999999c12.497067-12.497067 12.497067-32.757333 0-45.255467l-135.765333-135.764266c-12.496-12.497067-32.757333-12.497067-45.2544 0-12.497067 12.497067-12.497067 32.757333 0 45.255466l135.765333 135.764267c12.496 12.497067 32.757333 12.497067 45.2544 0zM795.646933 524.5727999999999c12.497067-12.497067 12.497067-32.757333 0-45.255467l-135.765333-135.764266c-12.496-12.497067-32.757333-12.497067-45.2544 0-12.497067 12.497067-12.497067 32.757333 0 45.255466l135.765333 135.764267c12.496 12.497067 32.757333 12.497067 45.2544 0zM479.160533 524.5727999999999c12.497067 12.497067 32.757333 12.497067 45.255467 0l135.764267-135.765333c12.497067-12.496 12.497067-32.757333 0-45.2544-12.497067-12.497067-32.757333-12.497067-45.255467 0l-135.764267 135.765333c-12.497067 12.496-12.497067 32.757333 0 45.2544z"  horiz-adv-x="1024" />

    
    <glyph glyph-name="crs" unicode="&#58900;" d="M149.9616 21.961599999999976c-199.9488 199.947733-199.9488 524.128 0 724.0768 199.947733 199.9488 524.128 199.9488 724.0768 0 199.9488-199.947733 199.9488-524.128 0-724.0768-199.947733-199.9488-524.128-199.9488-724.0768 0z m45.2544 45.2544c174.954667-174.954667 458.613333-174.954667 633.568 0 174.954667 174.954667 174.954667 458.613333 0 633.568-174.954667 174.954667-458.613333 174.954667-633.568 0-174.954667-174.954667-174.954667-458.613333 0-633.568zM647.765333 519.765333c12.496-12.498133 12.496-32.7584 0-45.255466L421.489067 248.23466699999994c-12.497067-12.497067-32.757333-12.497067-45.2544 0-12.497067 12.497067-12.497067 32.757333 0 45.2544L602.509867 519.765333c12.497067 12.497067 32.757333 12.497067 45.2544 0zM368.096 421.114667a31.9232 31.9232 0 0 0 6.631467 9.649066c12.496 12.496 32.757333 12.496 45.2544 0 12.497067-12.497067 12.497067-32.7584 0-45.255466l1.508266-1.508267-150.849066-150.849067c-16.6624-16.6624-16.6624-43.677867 0-60.340266l30.1696-30.1696c16.6624-16.6624 43.677867-16.6624 60.340266 0L512 293.490133c12.497067 12.497067 32.757333 12.497067 45.2544 0 12.497067-12.497067 12.497067-32.757333 0-45.2544l-150.848-150.850133c-41.656533-41.655467-109.194667-41.655467-150.850133 0l-30.170667 30.170667c-41.655467 41.655467-41.655467 109.1936 0 150.849066l142.709333 142.709334z m279.669333-82.369067c-12.498133-12.497067-32.7584-12.497067-45.255466 0-12.497067 12.496-12.497067 32.757333 0 45.2544l150.849066 150.849067c16.6624 16.6624 16.6624 43.677867 0 60.340266l-30.1696 30.1696c-16.6624 16.6624-43.677867 16.6624-60.340266 0L512 474.509867c-12.497067-12.497067-32.757333-12.497067-45.2544 0-12.497067 12.497067-12.497067 32.757333 0 45.2544l150.848 150.850133c41.656533 41.655467 109.194667 41.655467 150.850133 0l30.170667-30.170667c41.655467-41.655467 41.655467-109.1936 0-150.849066L647.764267 338.74559999999997z"  horiz-adv-x="1024" />

    
    <glyph glyph-name="xiaoxi1" unicode="&#58902;" d="M512-128C229.229867-128 0 101.22986700000001 0 384S229.229867 896 512 896s512-229.229867 512-512-229.229867-512-512-512z m0 64c247.424 0 448 200.576 448 448S759.424 832 512 832 64 631.424 64 384s200.576-448 448-448zM512 736m-32 0a32 32 0 1 1 64 0 32 32 0 1 1-64 0ZM448 64h128c0-35.346133-28.653867-64-64-64s-64 28.653867-64 64zM768 192c0 13.677867-8.6624 25.719467-21.328 30.1952L704 237.27786700000001V480c0 106.0384-85.9616 192-192 192s-192-85.9616-192-192v-242.722133l-42.672-15.082667C264.661333 217.719467 256 205.677867 256 192c0-17.6736 14.3264-32 32-32h448c17.6736 0 32 14.3264 32 32z m64 0c0-53.019733-42.980267-96-96-96H288c-53.019733 0-96 42.980267-96 96 0 41.799467 26.7136 77.358933 64 90.5376V480c0 141.384533 114.615467 256 256 256s256-114.615467 256-256v-197.4624c37.2864-13.178667 64-48.738133 64-90.5376z"  horiz-adv-x="1024" />

    
    <glyph glyph-name="zhanghaoguanli1" unicode="&#58903;" d="M896-32c0-17.6736-14.3264-32-32-32H160c-17.6736 0-32 14.3264-32 32 0 212.077867 171.922133 384 384 384s384-171.922133 384-384z m-65.579733 32C814.3648 161.70666700000004 677.930667 288 512 288S209.6352 161.70666700000004 193.579733 0H830.421333zM512 448c88.365867 0 160 71.634133 160 160s-71.634133 160-160 160-160-71.634133-160-160 71.634133-160 160-160z m0-64c-123.712 0-224 100.288-224 224S388.288 832 512 832s224-100.288 224-224-100.288-224-224-224z"  horiz-adv-x="1024" />

    
    <glyph glyph-name="rizhi" unicode="&#58904;" d="M128 96c0 17.6736 14.3264 32 32 32 17.6736 0 32-14.3264 32-32v-53.333333c0-23.563733 19.102933-42.666667 42.666667-42.666667h554.666666c23.563733 0 42.666667 19.102933 42.666667 42.666667V293.4624c-37.2864 13.178667-64 48.738133-64 90.5376 0 41.799467 26.7136 77.358933 64 90.5376V725.333333c0 23.563733-19.102933 42.666667-42.666667 42.666667H234.666667c-23.563733 0-42.666667-19.102933-42.666667-42.666667v-53.333333c0-17.6736-14.3264-32-32-32-17.6736 0-32 14.3264-32 32v53.333333c0 58.909867 47.7568 106.666667 106.666667 106.666667h554.666666c58.909867 0 106.666667-47.7568 106.666667-106.666667v-250.795733c37.2864-13.178667 64-48.738133 64-90.5376 0-41.799467-26.7136-77.358933-64-90.5376V42.66666699999996c0-58.909867-47.7568-106.666667-106.666667-106.666667H234.666667c-58.909867 0-106.666667 47.7568-106.666667 106.666667v53.333333z m0 256v64c0 17.6736 14.3264 32 32 32 17.6736 0 32-14.3264 32-32v-64c0-17.6736-14.3264-32-32-32-17.6736 0-32 14.3264-32 32z m0-96h96c17.6736 0 32-14.3264 32-32 0-17.6736-14.3264-32-32-32H96c-17.6736 0-32 14.3264-32 32 0 17.6736 14.3264 32 32 32h32z m-16 256H96c-17.6736 0-32 14.3264-32 32 0 17.6736 14.3264 32 32 32h128c17.6736 0 32-14.3264 32-32 0-17.6736-14.3264-32-32-32H112z m752-160c17.6736 0 32 14.3264 32 32 0 17.6736-14.3264 32-32 32-17.6736 0-32-14.3264-32-32 0-17.6736 14.3264-32 32-32zM352 576h320c17.6736 0 32-14.3264 32-32 0-17.6736-14.3264-32-32-32H352c-17.6736 0-32 14.3264-32 32 0 17.6736 14.3264 32 32 32z m0-160h320c17.6736 0 32-14.3264 32-32 0-17.6736-14.3264-32-32-32H352c-17.6736 0-32 14.3264-32 32 0 17.6736 14.3264 32 32 32z m0-160h320c17.6736 0 32-14.3264 32-32 0-17.6736-14.3264-32-32-32H352c-17.6736 0-32 14.3264-32 32 0 17.6736 14.3264 32 32 32z"  horiz-adv-x="1024" />

    
    <glyph glyph-name="qudaoguanli" unicode="&#58905;" d="M358.683733 435.566933C335.349333 404.2688 298.0416 384 256 384c-3.524267 0-7.0144 0.142933-10.4672 0.421333l-46.6592-264.618666C232.525867 104.88319999999999 256 71.18399999999997 256 32c0-53.019733-42.980267-96-96-96s-96 42.980267-96 96c0 44.277333 29.975467 81.553067 70.7392 92.642133l49.597867 281.2832C150.343467 428.936533 128 467.8592 128 512c0 70.692267 57.307733 128 128 128s128-57.307733 128-128c0-5.604267-0.360533-11.124267-1.058133-16.5376l282.3744-163.029333c17.0912 22.9248 41.678933 39.931733 70.133333 47.392l23.563733 269.339733C726.496 664.5397330000001 704 697.642667 704 736c0 53.019733 42.980267 96 96 96s96-42.980267 96-96c0-45.202133-31.240533-83.1072-73.307733-93.3024l-22.9792-262.656C855.0656 365.93066699999997 896 315.74506699999995 896 256c0-70.692267-57.307733-128-128-128s-128 57.307733-128 128c0 5.604267 0.360533 11.124267 1.058133 16.5376l-282.3744 163.029333z"  horiz-adv-x="1024" />

    
    <glyph glyph-name="mendian" unicode="&#58906;" d="M896 329.02613299999996V42.66666699999996c0-58.909867-47.7568-106.666667-106.666667-106.666667H234.666667c-58.909867 0-106.666667 47.7568-106.666667 106.666667V329.02506700000004C90.509867 345.56266700000003 64.341333 383.05920000000003 64.341333 426.666667a106.666667 106.666667 0 0 0 1.3472 16.896l47.9104 298.666666C121.898667 793.954133 166.5312 832 218.919467 832h586.161066c52.388267 0 97.022933-38.0448 105.320534-89.770667l47.9104-298.666666c7.853867-48.9568-18.9472-95.470933-62.311467-114.536534zM852.992 384a42.666667 42.666667 0 0 1 6.757333 0.538667c23.2672 3.732267 39.102933 25.6192 35.370667 48.885333l-47.911467 298.666667C843.890133 752.782933 826.0352 768 805.080533 768H218.919467c-20.955733 0-38.8096-15.218133-42.128-35.908267l-47.911467-298.666666a42.666667 42.666667 0 0 1-0.538667-6.7584c0-23.563733 19.102933-42.666667 42.666667-42.666667h681.984zM288 608h448c17.6736 0 32-14.3264 32-32 0-17.6736-14.3264-32-32-32H288c-17.6736 0-32 14.3264-32 32 0 17.6736 14.3264 32 32 32z m-96-288v-277.333333c0-23.563733 19.102933-42.666667 42.666667-42.666667h554.666666c23.563733 0 42.666667 19.102933 42.666667 42.666667V320H192z"  horiz-adv-x="1026" />

    
    <glyph glyph-name="caiwu" unicode="&#58907;" d="M832 704h21.333333c58.909867 0 106.666667-47.7568 106.666667-106.666667v-554.666666c0-58.909867-47.7568-106.666667-106.666667-106.666667H170.666667c-58.909867 0-106.666667 47.7568-106.666667 106.666667V725.333333c0 58.909867 47.7568 106.666667 106.666667 106.666667h554.666666c58.909867 0 106.666667-47.7568 106.666667-106.666667v-21.333333z m-64 0v21.333333c0 23.563733-19.102933 42.666667-42.666667 42.666667H170.666667c-23.563733 0-42.666667-19.102933-42.666667-42.666667v-682.666666c0-23.563733 19.102933-42.666667 42.666667-42.666667h682.666666c23.563733 0 42.666667 19.102933 42.666667 42.666667V597.333333c0 23.563733-19.102933 42.666667-42.666667 42.666667H384v64h384z m-480 0h96v-64h-96c-17.6736 0-32 14.3264-32 32 0 17.6736 14.3264 32 32 32zM647.677867 578.1344l0.0128-0.011733c12.545067 11.749333 32.2432 11.501867 44.487466-0.7424 12.245333-12.244267 12.491733-31.9424 0.7424-44.487467l0.011734-0.0128-105.5936-105.594667c-12.565333-12.565333-27.4848-21.339733-43.338667-26.325333V384h128c17.6736 0 32-14.3264 32-32 0-17.6736-14.3264-32-32-32H544v-64h128c17.6736 0 32-14.3264 32-32 0-17.6736-14.3264-32-32-32H544v-96c0-17.6736-14.3264-32-32-32-17.6736 0-32 14.3264-32 32v96H352c-17.6736 0-32 14.3264-32 32 0 17.6736 14.3264 32 32 32h128v64H352c-17.6736 0-32 14.3264-32 32 0 17.6736 14.3264 32 32 32h128v16.906667c-15.917867 4.974933-30.901333 13.768533-43.511467 26.378666l-105.594666 105.594667c-12.497067 12.497067-12.497067 32.757333 0 45.2544 12.497067 12.497067 32.757333 12.497067 45.255466 0l105.594667-105.5936c16.661333-16.6624 43.6768-16.6624 60.3392 0L647.677867 578.133333z"  horiz-adv-x="1024" />

    
    <glyph glyph-name="duanxinshezhi" unicode="&#58908;" d="M607.509333 445.345067c-46.4192-7.786667-87.189333-32.229333-115.957333-66.9728l-57.746133 33.3408-32-55.426134 57.7056-33.316266c-7.761067-20.8512-12.0032-43.415467-12.0032-66.970667s4.242133-46.119467 12.0032-66.970667l-57.7056-33.316266 32-55.426134 57.7472 33.3408c28.768-34.743467 69.537067-59.186133 115.9552-66.9728V0h64v66.654933c46.418133 7.786667 87.188267 32.229333 115.956266 66.9728l57.746134-33.3408 32 55.426134-57.7056 33.316266c7.762133 20.8512 12.0032 43.415467 12.0032 66.970667s-4.241067 46.119467-12.0032 66.970667l57.706666 33.316266-32 55.426134-57.7472-33.3408c-28.768 34.743467-69.538133 59.186133-115.956266 66.9728V512h-64v-66.654933zM797.042133 54.19733299999996a255.728 255.728 0 0 0-61.534933-35.5872V-22.399999999999977c0-22.976-18.624-41.6-41.6-41.6h-108.8c-22.974933 0-41.6 18.624-41.6 41.6v41.008a255.729067 255.729067 0 0 0-61.533867 35.588267l-35.566933-20.5344c-19.8976-11.488-45.339733-4.670933-56.826667 15.226666l-54.4 94.222934c-11.488 19.8976-4.670933 45.339733 15.226667 56.826666l35.547733 20.523734A258.2496 258.2496 0 0 0 383.508267 256c0 12.058667 0.834133 23.9232 2.446933 35.538133l-35.547733 20.522667c-19.8976 11.488-26.714667 36.930133-15.226667 56.827733l54.4 94.222934c11.488 19.8976 36.929067 26.714667 56.826667 15.226666l35.566933-20.5344a255.728 255.728 0 0 0 61.533867 35.5872V534.4c0 22.976 18.625067 41.6 41.6 41.6h108.8c22.976 0 41.6-18.624 41.6-41.6v-41.008a255.729067 255.729067 0 0 0 61.534933-35.588267l35.566933 20.5344c19.896533 11.488 45.338667 4.670933 56.826667-15.226666l54.4-94.222934c11.488-19.8976 4.669867-45.339733-15.226667-56.826666l-35.5488-20.523734A258.2496 258.2496 0 0 0 895.509333 256c0-12.058667-0.834133-23.9232-2.446933-35.538133l35.5488-20.522667c19.896533-11.488 26.7136-36.930133 15.226667-56.827733l-54.4-94.222934c-11.488-19.8976-36.930133-26.714667-56.826667-15.226666l-35.566933 20.5344zM640 192c35.346133 0 64 28.653867 64 64s-28.653867 64-64 64-64-28.653867-64-64 28.653867-64 64-64z m0-64c-70.692267 0-128 57.307733-128 128s57.307733 128 128 128 128-57.307733 128-128-57.307733-128-128-128zM288 448c17.6736 0 32-14.3264 32-32 0-17.6736-14.3264-32-32-32H117.333333c-29.454933 0-53.333333 23.8784-53.333333 53.333333V778.666667c0 29.454933 26.011733 53.333333 55.466667 53.333333h531.2c29.454933 0 53.333333-23.8784 53.333333-53.333333v-138.666667c0-17.6736-14.3264-32-32-32-17.6736 0-32 14.3264-32 32V768H128v-320h160z m322.186667 246.1728L459.338667 543.322667c-41.656533-41.655467-109.194667-41.655467-150.850134 0L157.639467 694.1728c-12.497067 12.497067-12.497067 32.757333 0 45.2544 12.497067 12.497067 32.757333 12.497067 45.2544 0l90.509866-90.509867-45.2544-45.2544-15.085866 15.0848c-30.928 30.929067-38.8928 76.125867-23.893334 114.4032l84.2336-84.2336 60.340267-60.3392c16.661333-16.6624 43.6768-16.6624 60.3392 0l150.849067 150.849067c12.497067 12.497067 32.7584 12.497067 45.255466 0 12.497067-12.497067 12.497067-32.757333 0-45.2544z"  horiz-adv-x="1024" />

    
    <glyph glyph-name="shezhi-" unicode="&#58909;" d="M512 256c70.692267 0 128 57.307733 128 128s-57.307733 128-128 128-128-57.307733-128-128 57.307733-128 128-128z m0-64c-106.0384 0-192 85.9616-192 192s85.9616 192 192 192 192-85.9616 192-192-85.9616-192-192-192zM668.692267 142.30719999999997l32.898133 21.381333 58.0128-33.493333c20.407467-11.7824 46.501333-4.7904 58.283733 15.616l53.333334 92.376533c11.7824 20.407467 4.789333 46.5024-15.616 58.283734l-57.976534 33.472 1.992534 39.105066a293.774933 293.774933 0 0 1 0 29.902934l-1.992534 39.104 57.975467 33.472c20.407467 11.7824 27.399467 37.877333 15.617067 58.2848l-53.333334 92.375466c-11.7824 20.407467-37.877333 27.399467-58.282666 15.617067l-58.013867-33.493333-32.898133 21.381333a287.630933 287.630933 0 0 1-25.824 14.939733L608 658.4576V725.333333c0 23.563733-19.102933 42.666667-42.666667 42.666667H458.666667c-23.563733 0-42.666667-19.102933-42.666667-42.666667v-66.875733l-34.869333-17.824a287.630933 287.630933 0 0 1-25.822934-14.9408l-32.898133-21.381333-58.0128 33.493333c-20.407467 11.7824-46.501333 4.7904-58.283733-15.616l-53.333334-92.376533c-11.7824-20.407467-4.789333-46.5024 15.616-58.283734l57.976534-33.472-1.992534-39.105066a293.774933 293.774933 0 0 1 0-29.902934l1.992534-39.104-57.975467-33.472c-20.407467-11.7824-27.399467-37.877333-15.617067-58.2848l53.333334-92.375466c11.7824-20.407467 37.877333-27.399467 58.282666-15.617067l58.013867 33.493333 32.898133-21.381333a287.630933 287.630933 0 0 1 25.824-14.939733L416 109.54240000000004V42.66666699999996c0-23.563733 19.102933-42.666667 42.666667-42.666667h106.666666c23.563733 0 42.666667 19.102933 42.666667 42.666667v66.875733l34.869333 17.824a287.630933 287.630933 0 0 1 25.822934 14.9408zM565.333333-64H458.666667c-55.722667 0-101.466667 42.7296-106.2528 97.2096-0.2752 3.147733-0.413867 6.285867-0.413867 9.457067v27.7152a351.632 351.632 0 0 0-31.569067 18.263466l-24.034133-13.876266c-51.018667-29.454933-116.253867-11.975467-145.709867 39.0432l-53.333333 92.375466c-27.861333 48.258133-13.728 109.237333 31.060267 140.622934a108.8192 108.8192 0 0 0 7.982933 5.086933l24.066133 13.8944a357.774933 357.774933 0 0 0 0 36.416l-24.066133 13.8944a108.0576 108.0576 0 0 0-7.872 5.009067C83.623467 452.573867 69.4912 513.554133 97.352533 561.8133330000001l53.333334 92.375467c29.456 51.018667 94.692267 68.498133 145.709866 39.0432l24.034134-13.876267A351.632 351.632 0 0 0 352 697.618133V725.333333c0 3.1712 0.138667 6.309333 0.4096 9.410134C357.198933 789.271467 402.942933 832 458.666667 832h106.666666c55.722667 0 101.466667-42.7296 106.2528-97.2096 0.2752-3.147733 0.413867-6.285867 0.413867-9.457067v-27.7152a351.632 351.632 0 0 0 31.569067-18.263466l24.034133 13.876266c51.018667 29.454933 116.253867 11.975467 145.709867-39.0432l53.333333-92.375466c27.861333-48.258133 13.728-109.237333-31.060267-140.622934a108.8192 108.8192 0 0 0-7.982933-5.086933l-24.066133-13.8944a357.776 357.776 0 0 0 0-36.416l24.066133-13.8944c2.72-1.5712 5.345067-3.242667 7.872-5.009067 44.900267-31.4624 59.032533-92.442667 31.1712-140.7008l-53.333333-92.375466c-29.456-51.018667-94.692267-68.498133-145.709867-39.0432l-24.034133 13.876266A351.632 351.632 0 0 0 672 70.38186700000006V42.66666699999996c0-3.1712-0.138667-6.309333-0.4096-9.410134C666.801067-21.27146700000003 621.057067-64 565.333333-64z"  horiz-adv-x="1024" />

    
    <glyph glyph-name="xinzeng" unicode="&#58910;" d="M608 608V768c0 35.346133 28.653867 64 64 64s64-28.653867 64-64v-160h160c35.346133 0 64-28.653867 64-64s-28.653867-64-64-64H736v-160c0-35.346133-28.653867-64-64-64s-64 28.653867-64 64V480H448c-35.346133 0-64 28.653867-64 64s28.653867 64 64 64h160zM832 384c0 17.6736 14.3264 32 32 32 17.6736 0 32-14.3264 32-32v-341.333333c0-58.909867-47.7568-106.666667-106.666667-106.666667H170.666667c-58.909867 0-106.666667 47.7568-106.666667 106.666667V661.333333c0 58.909867 47.7568 106.666667 106.666667 106.666667h341.333333c17.6736 0 32-14.3264 32-32 0-17.6736-14.3264-32-32-32H170.666667c-23.563733 0-42.666667-19.102933-42.666667-42.666667v-618.666666c0-23.563733 19.102933-42.666667 42.666667-42.666667h618.666666c23.563733 0 42.666667 19.102933 42.666667 42.666667V384z"  horiz-adv-x="1024" />

    
    <glyph glyph-name="heiban" unicode="&#58911;" d="M503.693867 182.62720000000002l190.615466-191.557333c12.497067-12.497067 12.497067-32.757333 0-45.2544-12.496-12.497067-32.757333-12.497067-45.2544 0L458.439467 137.37279999999998c-12.497067 12.497067-12.497067 32.757333 0 45.2544 12.497067 12.497067 32.757333 12.497067 45.2544 0zM519.989333 182.62720000000002c12.496 12.497067 32.757333 12.497067 45.253334 0 12.497067-12.497067 12.497067-32.757333 0-45.2544L374.6272-54.18453299999999c-12.497067-12.497067-32.757333-12.497067-45.2544 0-12.497067 12.496-12.497067 32.757333 0 45.2544l190.615467 191.557333zM896 768v-533.333333c0-58.909867-47.7568-106.666667-106.666667-106.666667H234.666667c-58.909867 0-106.666667 47.7568-106.666667 106.666667V768H96c-17.6736 0-32 14.3264-32 32 0 17.6736 14.3264 32 32 32h832c17.6736 0 32-14.3264 32-32 0-17.6736-14.3264-32-32-32h-32z m-704 0v-533.333333c0-23.563733 19.102933-42.666667 42.666667-42.666667h554.666666c23.563733 0 42.666667 19.102933 42.666667 42.666667V768H192z m96-128h448c17.6736 0 32-14.3264 32-32 0-17.6736-14.3264-32-32-32H288c-17.6736 0-32 14.3264-32 32 0 17.6736 14.3264 32 32 32z m0-128h448c17.6736 0 32-14.3264 32-32 0-17.6736-14.3264-32-32-32H288c-17.6736 0-32 14.3264-32 32 0 17.6736 14.3264 32 32 32z m0-128h192c17.6736 0 32-14.3264 32-32 0-17.6736-14.3264-32-32-32H288c-17.6736 0-32 14.3264-32 32 0 17.6736 14.3264 32 32 32z"  horiz-adv-x="1024" />

    
    <glyph glyph-name="naozhong" unicode="&#58912;" d="M670.391467 225.60853299999997c-12.496-12.497067-32.757333-12.497067-45.2544 0l-135.765334 135.764267c-12.496 12.497067-12.496 32.757333 0 45.2544 12.498133 12.497067 32.7584 12.497067 45.255467 0l135.765333-135.764267c12.496-12.497067 12.496-32.757333 0-45.2544zM512 352c-17.6736 0-32 14.3264-32 32V576c0 17.6736 14.3264 32 32 32 17.6736 0 32-14.3264 32-32v-192c0-17.6736-14.3264-32-32-32zM64 640c0 106.0384 85.9616 192 192 192 17.6736 0 32-14.3264 32-32 0-17.6736-14.3264-32-32-32-70.692267 0-128-57.307733-128-128 0-17.6736-14.3264-32-32-32-17.6736 0-32 14.3264-32 32z m896 0c0-17.6736-14.3264-32-32-32-17.6736 0-32 14.3264-32 32 0 70.692267-57.307733 128-128 128-17.6736 0-32 14.3264-32 32 0 17.6736 14.3264 32 32 32 106.0384 0 192-85.9616 192-192zM735.7728 96.22720000000004c12.497067 12.497067 32.757333 12.497067 45.2544 0l105.594667-105.594667c12.497067-12.496 12.497067-32.757333 0-45.2544-12.497067-12.497067-32.757333-12.497067-45.2544 0l-105.594667 105.594667c-12.497067 12.497067-12.497067 32.757333 0 45.2544z m-447.550933 0c12.497067-12.497067 12.497067-32.757333 0-45.2544l-105.594667-105.594667c-12.497067-12.497067-32.757333-12.497067-45.2544 0-12.497067 12.497067-12.497067 32.757333 0 45.2544l105.594667 105.594667c12.496 12.497067 32.757333 12.497067 45.2544 0zM512 32c194.404267 0 352 157.595733 352 352S706.404267 736 512 736 160 578.404267 160 384s157.595733-352 352-352z m0-64C282.2496-32 96 154.2496 96 384S282.2496 800 512 800s416-186.2496 416-416-186.2496-416-416-416z"  horiz-adv-x="1024" />

    
    <glyph glyph-name="mensuo" unicode="&#58915;" d="M563.204267 288c-11.675733-15.544533-30.2656-25.6-51.204267-25.6-35.346133 0-64 28.653867-64 64s28.653867 64 64 64c26.244267 0 48.798933-15.797333 58.674133-38.4H704V576H320v-533.333333c0-23.563733 19.102933-42.666667 42.666667-42.666667h298.666666c23.563733 0 42.666667 19.102933 42.666667 42.666667V288H563.204267zM768 352h160c17.6736 0 32-14.3264 32-32 0-17.6736-14.3264-32-32-32H768v-245.333333c0-58.909867-47.7568-106.666667-106.666667-106.666667H362.666667c-58.909867 0-106.666667 47.7568-106.666667 106.666667V725.333333c0 58.909867 47.7568 106.666667 106.666667 106.666667h298.666666c58.909867 0 106.666667-47.7568 106.666667-106.666667v-373.333333z m-64 288v85.333333c0 23.563733-19.102933 42.666667-42.666667 42.666667H362.666667c-23.563733 0-42.666667-19.102933-42.666667-42.666667v-85.333333h384z"  horiz-adv-x="1024" />

    
    <glyph glyph-name="zhangben" unicode="&#58916;" d="M192 64v-21.333333c0-23.563733 19.102933-42.666667 42.666667-42.666667h533.333333V768H234.666667c-23.563733 0-42.666667-19.102933-42.666667-42.666667v-21.333333h32c17.6736 0 32-14.3264 32-32 0-17.6736-14.3264-32-32-32h-32v-128h32c17.6736 0 32-14.3264 32-32 0-17.6736-14.3264-32-32-32h-32v-128h32c17.6736 0 32-14.3264 32-32 0-17.6736-14.3264-32-32-32h-32v-128h32c17.6736 0 32-14.3264 32-32 0-17.6736-14.3264-32-32-32h-32z m-64 64V256H96c-17.6736 0-32 14.3264-32 32 0 17.6736 14.3264 32 32 32h32V448H96c-17.6736 0-32 14.3264-32 32 0 17.6736 14.3264 32 32 32h32V640H96c-17.6736 0-32 14.3264-32 32 0 17.6736 14.3264 32 32 32h32v21.333333c0 58.909867 47.7568 106.666667 106.666667 106.666667h618.666666c58.909867 0 106.666667-47.7568 106.666667-106.666667v-682.666666c0-58.909867-47.7568-106.666667-106.666667-106.666667H234.666667c-58.909867 0-106.666667 47.7568-106.666667 106.666667v21.333333H96c-17.6736 0-32 14.3264-32 32 0 17.6736 14.3264 32 32 32h32z m704 640v-768h21.333333c23.563733 0 42.666667 19.102933 42.666667 42.666667V725.333333c0 23.563733-19.102933 42.666667-42.666667 42.666667h-21.333333zM647.677867 642.360533l0.0128-0.011733c12.545067 11.749333 32.2432 11.501867 44.487466-0.7424 12.245333-12.244267 12.491733-31.9424 0.7424-44.488533l0.011734-0.011734-105.5936-105.594666c-12.565333-12.565333-27.4848-21.339733-43.338667-26.325334v-16.96h128c17.6736 0 32-14.327467 32-32 0-17.6736-14.3264-32-32-32H544v-64h128c17.6736 0 32-14.327467 32-32 0-17.6736-14.3264-32-32-32H544v-96c0-17.6736-14.3264-32-32-32-17.6736 0-32 14.3264-32 32v96H352c-17.6736 0-32 14.3264-32 32 0 17.672533 14.3264 32 32 32h128v64H352c-17.6736 0-32 14.3264-32 32 0 17.672533 14.3264 32 32 32h128v16.906667c-15.917867 4.974933-30.901333 13.767467-43.511467 26.378667l-105.594666 105.594666c-12.497067 12.497067-12.497067 32.757333 0 45.2544 12.497067 12.497067 32.757333 12.497067 45.255466 0l105.594667-105.594666c16.661333-16.661333 43.6768-16.661333 60.3392 0l105.594667 105.594666z"  horiz-adv-x="1024" />

    
    <glyph glyph-name="wenti" unicode="&#58917;" d="M512 0c212.077867 0 384 171.922133 384 384S724.077867 768 512 768 128 596.077867 128 384s171.922133-384 384-384z m0-64C264.576-64 64 136.57600000000002 64 384S264.576 832 512 832s448-200.576 448-448-200.576-448-448-448zM409.178667 435.751467c0.285867-0.362667 0.5632-0.733867 0.833066-1.109334l0.551467-0.721066-0.033067-0.021334A31.850667 31.850667 0 0 0 416 416c0-17.6736-14.3264-32-32-32-11.213867 0-21.080533 5.768533-26.794667 14.4992l-0.0544-0.036267C333.7952 430.2624 320 469.52 320 512c0 106.0384 85.9616 192 192 192s192-85.9616 192-192c0-72.450133-40.128-135.5264-99.370667-168.218667-36.392533-22.570667-60.629333-62.8832-60.629333-108.856533 0-1.9264 0.042667-3.844267 0.126933-5.749333l-0.529066-0.090667A32.234667 32.234667 0 0 0 544 224c0-17.6736-14.3264-32-32-32-17.6736 0-32 14.3264-32 32 0 1.066667 0.052267 2.120533 0.1536 3.160533a195.368533 195.368533 0 0 0-0.1536 7.765334c0 72.448 40.128 135.5264 99.370667 168.2176C615.7632 425.714133 640 466.026667 640 512c0 70.692267-57.307733 128-128 128s-128-57.307733-128-128c0-28.568533 9.358933-54.9504 25.178667-76.248533zM512 64c-17.6736 0-32 14.3264-32 32 0 17.6736 14.3264 32 32 32 17.6736 0 32-14.3264 32-32 0-17.6736-14.3264-32-32-32z"  horiz-adv-x="1024" />

    
    <glyph glyph-name="xiaoxitixing" unicode="&#58918;" d="M512 832m-64 0a64 64 0 1 1 128 0 64 64 0 1 1-128 0ZM448-64h128c0-35.346133-28.653867-64-64-64s-64 28.653867-64 64zM256 128h-96c-17.6736 0-32-14.3264-32-32 0-17.6736 14.3264-32 32-32h704c17.6736 0 32 14.3264 32 32 0 17.6736-14.3264 32-32 32h-96V512c0 141.384533-114.615467 256-256 256S256 653.384533 256 512v-384z m576 64h32c53.019733 0 96-42.980267 96-96s-42.980267-96-96-96H160c-53.019733 0-96 42.980267-96 96s42.980267 96 96 96h32V512c0 176.730667 143.269333 320 320 320s320-143.269333 320-320v-320z"  horiz-adv-x="1024" />

    
    <glyph glyph-name="qudaodingdan" unicode="&#58919;" d="M448 0c17.6736 0 32-14.3264 32-32 0-17.6736-14.3264-32-32-32H170.666667c-58.909867 0-106.666667 47.7568-106.666667 106.666667V725.333333c0 58.909867 47.7568 106.666667 106.666667 106.666667h426.666666c58.909867 0 106.666667-47.7568 106.666667-106.666667v-21.333333c0-17.6736-14.3264-32-32-32-17.6736 0-32 14.3264-32 32v21.333333c0 23.563733-19.102933 42.666667-42.666667 42.666667H170.666667c-23.563733 0-42.666667-19.102933-42.666667-42.666667v-682.666666c0-23.563733 19.102933-42.666667 42.666667-42.666667h277.333333z m192 512h64v-469.333333 469.333333h-64zM736 256c53.019733 0 96-42.980267 96-96s-42.980267-96-96-96c-17.6736 0-32 14.3264-32 32 0 17.6736 14.3264 32 32 32 17.6736 0 32 14.3264 32 32 0 17.6736-14.3264 32-32 32-17.6736 0-32 14.3264-32 32 0 17.6736 14.3264 32 32 32z m0 128c123.712 0 224-100.288 224-224s-100.288-224-224-224c-17.6736 0-32 14.3264-32 32 0 17.6736 14.3264 32 32 32 88.365867 0 160 71.634133 160 160s-71.634133 160-160 160c-17.6736 0-32 14.3264-32 32 0 17.6736 14.3264 32 32 32zM467.0432 256l115.8784 115.879467C588.784 379.264 597.838933 384 608 384h0.149333c8.238933 0.037333 16.490667-3.086933 22.775467-9.3728 7.3632-7.362133 10.3872-17.418667 9.0752-26.996267v-375.560533c1.312-9.576533-1.712-19.633067-9.0752-26.9952-12.496-12.497067-32.757333-12.497067-45.2544 0L466.7456 64H406.4c-29.454933 0-53.333333 23.8784-53.333333 53.333333v85.333334c0 29.454933 23.8784 53.333333 53.333333 53.333333h60.6432z m17.325867-64H449.066667c-17.6736 0-32-14.3264-32-32 0-17.6736 14.3264-32 32-32h32v-0.018133a31.888 31.888 0 0 0 21.560533-9.354667L576 45.25440000000003V274.44693299999994l-73.3728-73.371733A31.8592 31.8592 0 0 0 484.369067 192z m136.7264 384H800c17.6736 0 32-14.3264 32-32 0-17.6736-14.3264-32-32-32H621.252267l35.882666-35.882667c12.496-12.496 12.496-32.757333 0-45.2544-12.497067-12.497067-32.757333-12.497067-45.2544 0l-90.507733 90.509867a31.906133 31.906133 0 0 0-6.9152 10.3072l-0.050133 0.1216a32.050133 32.050133 0 0 0-2.407467 12.277333c0.010667 4.123733 0.8128 8.2464 2.407467 12.119467A31.901867 31.901867 0 0 1 512 544.078933c-0.020267 8.215467 3.104 16.437333 9.3728 22.705067l90.506667 90.509867c12.497067 12.497067 32.757333 12.497067 45.2544 0 12.497067-12.497067 12.497067-32.757333 0-45.2544L621.095467 576zM224 448h192c17.6736 0 32-14.3264 32-32 0-17.6736-14.3264-32-32-32H224c-17.6736 0-32 14.3264-32 32 0 17.6736 14.3264 32 32 32z m0 256h192c17.6736 0 32-14.3264 32-32v-128c0-17.6736-14.3264-32-32-32H224c-17.6736 0-32 14.3264-32 32V672c0 17.6736 14.3264 32 32 32z m0-384h64c17.6736 0 32-14.3264 32-32 0-17.6736-14.3264-32-32-32h-64c-17.6736 0-32 14.3264-32 32 0 17.6736 14.3264 32 32 32z m64 320c-17.6736 0-32-14.3264-32-32 0-17.6736 14.3264-32 32-32 17.6736 0 32 14.3264 32 32 0 17.6736-14.3264 32-32 32z"  horiz-adv-x="1024" />

    
    <glyph glyph-name="bendidingdan-" unicode="&#58920;" d="M792.383 213.30499999999995c-76.687 0-138.895-62.379-138.895-139.35 0-77.027 62.146-139.406 138.895-139.406 76.743 0 138.95 62.322 138.95 139.407 0 76.97-62.259 139.349-138.95 139.349m-404.475 474.71h186.79c19.683 0 36.283 18.534 36.283 41.471 0 22.88-16.555 41.364-37.359 41.364H387.908c-20.702 0-37.25-18.483-37.25-41.37 0-22.88 16.6-41.466 37.25-41.466m390.434-453.757c21.732 0 42.383-4.454 61.139-12.646V631.387c0 56.212-30.185 95.118-93.423 95.118h-84.196c0.825-4.5 1.337-9.108 1.337-13.767 0.051-34.816-25.162-69.063-55.09-69.063H349.53c-31.516 0-56.73 34.247-56.73 69.063 0.052 4.608 0.564 9.267 1.383 13.767h-85.22c-68.46 0-85.276-38.906-85.276-95.118v-556.356c0-60.36 24.087-94.151 90.453-94.151H660.02a154.243 154.243 0 0 0-35.715 98.964c0 85.293 68.921 154.407 154.038 154.407M303.412 515.22h364.964c13.477 0 24.85-12.595 25.879-27.136 0-13.568-14.148-28.103-27.625-28.103H300.64c-13.527 0-22.084 14.535-22.084 28.103 0 13.568 11.378 27.136 24.85 27.136m164.346-367.133H300.64c-13.528 0-22.085 14.541-22.085 28.104 0 13.568 11.378 27.084 24.85 27.084h166.087c13.528 0 24.906-12.492 25.93-27.079 0-13.568-14.194-28.109-27.671-28.109M299.105 301.625c-13.483 0-26.954 16.589-26.954 30.151 0 13.522 11.378 25.037 24.9 25.037h364.965c13.483 0 24.86-10.49 25.93-25.031 0-13.568-9.324-30.157-22.801-30.157h-366.04z m497.317-338.773a11.708 11.708 0 0 0-8.135 3.288c-0.063-0.16-56.548 58.573-56.548 58.573-12.68 15.018-20.628 34.588-20.628 56.052 0 47.218 38.19 85.504 85.333 85.504 47.122 0 85.334-38.263 85.334-85.504 0-21.47-7.948-41.04-20.992-56.052l-56.053-59.028c-2.304-1.582-5.16-2.84-8.311-2.84z m0 147.393a29.446 29.446 0 0 1-29.418-29.48 29.457 29.457 0 0 1 29.418-29.48 29.457 29.457 0 0 1 29.417 29.48 29.412 29.412 0 0 1-29.417 29.48z"  horiz-adv-x="1024" />

    
    <glyph glyph-name="fangzi" unicode="&#58921;" d="M128 384h64v-341.333333c0-23.563733 19.102933-42.666667 42.666667-42.666667h85.333333V202.66666699999996c0 64.801067 52.532267 117.333333 117.333333 117.333333h149.333334c64.801067 0 117.333333-52.532267 117.333333-117.333333v-202.666667h85.333333c23.563733 0 42.666667 19.102933 42.666667 42.666667V384h64v-341.333333c0-58.909867-47.7568-106.666667-106.666667-106.666667h-42.666666c-58.909867 0-106.666667 47.7568-106.666667 106.666667V202.66666699999996c0 29.454933-23.8784 53.333333-53.333333 53.333333H437.333333c-29.454933 0-53.333333-23.8784-53.333333-53.333333v-160c0-58.909867-47.7568-106.666667-106.666667-106.666667h-42.666666c-58.909867 0-106.666667 47.7568-106.666667 106.666667V384z m106.666667 192h554.666666-554.666666zM757.333333 0h-53.333333v53.333333c0-29.454933 23.8784-53.333333 53.333333-53.333333z m-490.666666 0c29.454933 0 53.333333 23.8784 53.333333 53.333333v-53.333333h-53.333333zM144.781867 448h734.436266L540.741333 756.5013329999999c-16.285867 14.842667-41.1968 14.842667-57.482666 0L144.781867 448z m16.120533-0.0128C178.158933 447.509333 192 433.370667 192 416v-32h-74.756267c-29.454933 0-53.333333 23.8784-53.333333 53.333333a53.333333 53.333333 0 0 0 17.406933 39.4176l358.829867 327.050667c40.714667 37.109333 102.990933 37.109333 143.7056 0l358.829867-327.050667c21.7696-19.842133 23.332267-53.5744 3.490133-75.344A53.333333 53.333333 0 0 0 906.756267 384H832v32c0 17.370667 13.841067 31.509333 31.0976 31.9872A1.0752 1.0752 0 0 1 862.933333 448H161.066667c-0.055467 0-0.109867-0.004267-0.164267-0.0128z"  horiz-adv-x="1024" />

    
    <glyph glyph-name="qudaoshezhi" unicode="&#58923;" d="M941.2608 45.220267000000035c24.9856-24.9856 24.9856-65.495467 0-90.481067-24.984533-24.9856-65.493333-24.9856-90.478933 0L619.800533 187.355733c-84.8704-45.941333-193.153067-33.0464-264.882133 38.682667-63.163733 63.1648-80.704 154.677333-52.621867 233.586133l97.8624-97.864533c37.477333-37.4784 98.241067-37.4784 135.719467 0 37.477333 37.4784 37.477333 98.2432 0 135.722667l-97.8624 97.863466c78.907733 28.082133 170.418133 10.5408 233.581867-52.624 71.728-71.729067 84.621867-180.013867 38.682666-264.885333l230.980267-232.616533z m-67.8592-67.861334c12.4928-12.491733 32.746667-12.491733 45.239467 0 12.4928 12.493867 12.4928 32.7488 0 45.2416s-32.746667 12.4928-45.239467 0-12.4928-32.747733 0-45.240533zM692.781867 564.650667c-37.490133 37.4912-37.490133 98.274133 0 135.765333 37.4912 37.490133 98.2752 37.490133 135.765333 0 37.490133-37.4912 37.490133-98.274133 0-135.765333-37.490133-37.490133-98.274133-37.490133-135.765333 0zM264.4864 449.889067c-13.722667-51.2128-66.362667-81.604267-117.575467-67.882667-51.2128 13.722667-81.605333 66.363733-67.882666 117.576533 13.722667 51.2128 66.362667 81.604267 117.575466 67.882667 51.2128-13.722667 81.604267-66.363733 67.882667-117.576533zM842.738133 188.93013299999996l-47.050666 47.050667c23.136 44.264533 36.218667 94.613333 36.218666 148.0192 0 45.713067-9.586133 89.1872-26.855466 128.522667 20.849067 7.752533 39.131733 20.784 53.223466 37.469866 24.119467-50.24 37.632-106.538667 37.632-165.992533 0-71.213867-19.3856-137.9008-53.168-195.069867zM706.973867 53.16586700000005C649.8048 19.384533000000033 583.118933 0 511.906133 0 309.952 0 144.411733 155.89973299999997 129.066667 353.91679999999997c13.3184-4.695467 27.648-7.250133 42.5728-7.250133 7.573333 0 14.992 0.658133 22.203733 1.918933C211.4656 188.51946699999996 347.144533 64 511.906133 64c53.4048 0 103.754667 13.082667 148.017067 36.2176l47.050667-47.050667zM677.898667 730.3679999999999c-16.6848-14.090667-29.717333-32.373333-37.469867-53.223467C601.092267 694.413867 557.618133 704 511.904 704c-106.048 0-200.049067-51.5872-258.2752-131.035733-16.586667 13.848533-36.730667 23.578667-58.861867 27.618133C263.934933 701.668267 380.173867 768 511.906133 768c59.453867 0 115.752533-13.511467 165.991467-37.632z"  horiz-adv-x="1024" />

    
    <glyph glyph-name="qian-" unicode="&#58927;" d="M512 0c212.077867 0 384 171.922133 384 384S724.077867 768 512 768 128 596.077867 128 384s171.922133-384 384-384z m0-64C264.576-64 64 136.57600000000002 64 384S264.576 832 512 832s448-200.576 448-448-200.576-448-448-448zM647.677867 610.360533l0.0128-0.011733c12.545067 11.749333 32.2432 11.501867 44.487466-0.7424 12.245333-12.244267 12.491733-31.9424 0.7424-44.488533l0.011734-0.011734-105.5936-105.594666c-12.565333-12.565333-27.4848-21.339733-43.338667-26.325334v-16.96h128c17.6736 0 32-14.327467 32-32 0-17.6736-14.3264-32-32-32H544v-64h128c17.6736 0 32-14.327467 32-32 0-17.6736-14.3264-32-32-32H544v-96c0-17.6736-14.3264-32-32-32-17.6736 0-32 14.3264-32 32v96H352c-17.6736 0-32 14.3264-32 32 0 17.672533 14.3264 32 32 32h128v64H352c-17.6736 0-32 14.3264-32 32 0 17.672533 14.3264 32 32 32h128v16.906667c-15.917867 4.974933-30.901333 13.767467-43.511467 26.378667l-105.594666 105.594666c-12.497067 12.497067-12.497067 32.757333 0 45.2544 12.497067 12.497067 32.757333 12.497067 45.255466 0l105.594667-105.594666c16.661333-16.661333 43.6768-16.661333 60.3392 0l105.594667 105.594666z"  horiz-adv-x="1024" />

    
    <glyph glyph-name="saoba" unicode="&#58928;" d="M284.7616 384c-21.296 0-39.3312-15.703467-42.261333-36.7968l-50.370134-362.666667a42.666667 42.666667 0 0 1-0.405333-5.869866c0-23.563733 19.101867-42.666667 42.666667-42.666667H790.346667a42.666667 42.666667 0 0 1 5.869866 0.405333c23.338667 3.242667 39.633067 24.7904 36.3904 48.1312l-50.370133 362.666667C779.3088 368.29653299999995 761.2736 384 739.976533 384H284.762667z m0 64h455.216c53.239467 0 98.327467-39.258667 105.652267-91.992533l50.370133-362.666667c8.104533-58.350933-32.628267-112.222933-90.978133-120.3264a106.666667 106.666667 0 0 0-14.674134-1.0144H234.389333c-58.909867 0-106.666667 47.7568-106.666666 106.666667 0 4.9088 1.4784 18.0096 1.0144 14.674133l50.3712 362.666667C186.432 408.741333 231.52 448 284.7616 448zM512.08 256c17.6736 0 32-14.3264 32-32v-320c0-17.6736-14.3264-32-32-32-17.672533 0-32 14.3264-32 32V224c0 17.6736 14.327467 32 32 32z m157.1328-1.1904c17.6064 1.540267 33.127467-11.483733 34.666667-29.089067l27.890133-318.782933c1.540267-17.605333-11.482667-33.1264-29.088-34.666667-17.6064-1.540267-33.127467 11.483733-34.667733 29.089067l-27.890134 318.782933c-1.540267 17.605333 11.483733 33.1264 29.089067 34.666667z m-314.802133 0c17.605333-1.540267 30.629333-17.061333 29.089066-34.666667l-27.890133-318.782933c-1.540267-17.605333-17.061333-30.629333-34.666667-29.089067-17.6064 1.540267-30.629333 17.061333-29.089066 34.666667l27.889066 318.782933c1.540267 17.605333 17.061333 30.629333 34.666667 29.089067zM484.266667 448h64V800c0 17.6736-14.3264 32-32 32-17.6736 0-32-14.3264-32-32v-352zM516.266667 896c53.019733 0 96-42.980267 96-96v-416H420.266667V800c0 53.019733 42.980267 96 96 96z"  horiz-adv-x="1024" />

    
    <glyph glyph-name="youjiantou1" unicode="&#58929;" d="M693.160533 383.7184l-429.921066-429.92c-12.497067-12.498133-12.497067-32.759467 0-45.255467 12.497067-12.497067 32.757333-12.497067 45.2544 0l452.548266 452.548267c12.497067 12.496 12.497067 32.757333 0 45.2544L308.493867 858.893867c-12.497067 12.497067-32.757333 12.497067-45.2544 0-12.497067-12.497067-12.497067-32.757333 0-45.2544l429.92-429.921067z"  horiz-adv-x="1024" />

    
    <glyph glyph-name="zuojiantou" unicode="&#58930;" d="M331.121067 383.7184l429.921066-429.92c12.497067-12.498133 12.497067-32.759467 0-45.255467-12.496-12.497067-32.757333-12.497067-45.2544 0L263.239467 361.09119999999996c-12.497067 12.496-12.497067 32.757333 0 45.2544L715.786667 858.893867c12.497067 12.497067 32.757333 12.497067 45.2544 0 12.497067-12.497067 12.497067-32.757333 0-45.2544l-429.92-429.921067z"  horiz-adv-x="1024" />

    
    <glyph glyph-name="xiajiantou" unicode="&#58931;" d="M166.4 556.8l313.6-371.2c19.2-19.2 38.4-32 57.6-32 25.6 0 44.8 12.8 57.6 32l313.6 371.2c12.8 12.8 12.8 32 0 44.8-12.8 12.8-25.6 12.8-38.4 0l-313.6-371.2c-6.4-6.4-12.8-12.8-25.6-12.8-6.4 0-19.2 6.4-25.6 12.8L204.8 601.6c-12.8 12.8-25.6 12.8-38.4 0-6.4-6.4-6.4-12.8-6.4-25.6 0-6.4 0-12.8 6.4-19.2z"  horiz-adv-x="1024" />

    
    <glyph glyph-name="zhongdianfang1" unicode="&#58932;" d="M934.4 441.6L640 755.2C614.4 780.8 582.4 800 544 800c-32 0-64-19.2-89.6-44.8L160 441.6c-32-38.4-32-64-25.6-76.8 6.4-12.8 25.6-38.4 76.8-38.4h19.2v-268.8c0-51.2 44.8-89.6 102.4-89.6h428.8c57.6 0 102.4 38.4 102.4 89.6V326.4h19.2c57.6 0 76.8 25.6 76.8 38.4 6.4 12.8 6.4 38.4-25.6 76.8z m-6.4-64c0-6.4-19.2-12.8-44.8-12.8H832v-307.2c0-32-25.6-51.2-64-51.2H332.8c-38.4 0-64 25.6-64 51.2V364.79999999999995h-51.2c-32 0-44.8 6.4-44.8 12.8-6.4 6.4 0 25.6 19.2 38.4l294.4 313.6c19.2 19.2 38.4 32 64 32s51.2-12.8 64-32L908.8 416c12.8-12.8 19.2-25.6 19.2-38.4zM544 102.39999999999998c-32 0-57.6 6.4-89.6 19.2-25.6 12.8-51.2 25.6-70.4 44.8-19.2 19.2-38.4 44.8-44.8 70.4-12.8 32-19.2 64-19.2 89.6 0 32 6.4 57.6 19.2 89.6 12.8 25.6 25.6 51.2 44.8 70.4 19.2 19.2 44.8 38.4 70.4 44.8C480 544 512 550.4 544 550.4s57.6-6.4 89.6-19.2c25.6-12.8 51.2-25.6 70.4-44.8 19.2-19.2 38.4-44.8 44.8-70.4 19.2-25.6 19.2-57.6 19.2-89.6 0-32-6.4-57.6-19.2-89.6-12.8-25.6-25.6-51.2-44.8-70.4-19.2-19.2-44.8-38.4-70.4-44.8-25.6-12.8-57.6-19.2-89.6-19.2z m0 416c-102.4 0-185.6-83.2-185.6-185.6 0-102.4 83.2-185.6 185.6-185.6s185.6 83.2 185.6 185.6C736 435.2 652.8 518.4 544 518.4zM544 275.20000000000005c-12.8 0-19.2 6.4-19.2 19.2V460.8c0 12.8 6.4 19.2 19.2 19.2 12.8 0 19.2-6.4 19.2-19.2v-166.4c0-12.8-6.4-19.2-19.2-19.2zM627.2 230.39999999999998c-6.4 0-6.4 0-12.8 6.4l-96 96c-6.4 6.4-6.4 12.8 0 19.2 6.4 6.4 19.2 6.4 25.6 0l96-96c6.4-6.4 6.4-19.2 0-25.6h-12.8z"  horiz-adv-x="1024" />

    
    <glyph glyph-name="dangrili" unicode="&#58933;" d="M499.2 793.6c-230.4 0-416-185.6-416-416s185.6-416 416-416 416 185.6 416 416-185.6 416-416 416z m0-768c-192 0-352 160-352 352s160 352 352 352 352-160 352-352-160-352-352-352zM108.8 588.8c-12.8 19.2-19.2 38.4-19.2 64-6.4 57.6 38.4 102.4 102.4 102.4 19.2 0 38.4-6.4 51.2-12.8 0 0-44.8-32-76.8-70.4-32-38.4-57.6-83.2-57.6-83.2z m787.2 0c12.8 19.2 19.2 38.4 19.2 64 0 57.6-44.8 102.4-102.4 102.4-19.2 0-38.4-6.4-51.2-12.8l76.8-76.8 57.6-76.8zM659.2 352H499.2c-19.2 0-32 12.8-32 32V627.2c0 19.2 12.8 32 32 32s32-19.2 32-38.4v-211.2h134.4c19.2 0 32-12.8 32-32-6.4-12.8-19.2-25.6-38.4-25.6z"  horiz-adv-x="1024" />

    
    <glyph glyph-name="jinzhi" unicode="&#58934;" d="M512 0c212.077867 0 384 171.922133 384 384S724.077867 768 512 768 128 596.077867 128 384s171.922133-384 384-384z m0-64C264.576-64 64 136.57600000000002 64 384S264.576 832 512 832s448-200.576 448-448-200.576-448-448-448zM806.156421 723.411255l45.254834-45.254834-633.567676-633.567676-45.254834 45.254834 633.567676 633.567676Z"  horiz-adv-x="1024" />

    
    <glyph glyph-name="xuanzhong" unicode="&#58937;" d="M896 544c-19.2 51.2-51.2 96-89.6 134.4-38.4 38.4-83.2 64-134.4 89.6-51.2 19.2-102.4 32-160 32-57.6 0-108.8-12.8-160-32-51.2-25.6-96-51.2-134.4-89.6C179.2 640 147.2 595.2 128 544c-19.2-51.2-32-108.8-32-160 0-57.6 12.8-108.8 32-160s51.2-96 89.6-134.4c38.4-38.4 83.2-70.4 134.4-89.6 51.2-19.2 108.8-32 160-32 57.6 0 108.8 12.8 160 32s96 51.2 134.4 89.6c38.4 38.4 70.4 83.2 89.6 134.4 19.2 51.2 32 108.8 32 160s-12.8 108.8-32 160z m-51.2-300.8c-19.2-44.8-44.8-83.2-76.8-115.2s-70.4-57.6-115.2-76.8c-44.8-19.2-89.6-25.6-140.8-25.6-51.2 0-96 6.4-140.8 25.6-44.8 19.2-83.2 44.8-115.2 76.8s-57.6 70.4-76.8 115.2c-19.2 44.8-25.6 89.6-25.6 140.8 0 51.2 6.4 96 25.6 140.8 19.2 38.4 44.8 76.8 76.8 108.8s70.4 57.6 115.2 76.8c44.8 19.2 89.6 32 140.8 32 51.2 0 96-6.4 140.8-25.6 44.8-19.2 83.2-44.8 115.2-76.8s57.6-70.4 76.8-115.2c19.2-44.8 25.6-89.6 25.6-140.8 0-51.2-6.4-96-25.6-140.8zM704 486.4c-6.4 0-12.8 0-19.2-6.4L473.6 268.79999999999995 339.2 403.2c-6.4 6.4-12.8 6.4-19.2 6.4-6.4 0-12.8 0-19.2-6.4-12.8-12.8-12.8-32 0-38.4l44.8-44.8 76.8-76.8 12.8-12.8c12.8-12.8 19.2-25.6 38.4-25.6 12.8 0 19.2 6.4 32 19.2 6.4 12.8 19.2 19.2 25.6 32l51.2 51.2 64 64 51.2 51.2 25.6 25.6c6.4 6.4 6.4 12.8 6.4 19.2 0 6.4 0 12.8-6.4 19.2H704z"  horiz-adv-x="1024" />

    
    <glyph glyph-name="bianji-" unicode="&#58938;" d="M512 834C263.42861328125 834 62 632.57138671875 62 384s201.42861328125002-450 450-450 450 201.42861328125002 450 450S760.57138671875 834 512 834z m244.28583984374998-347.14248046875l-315-315-156.42861328125002-42.8572265625c-21.42861328125-4.28642578125-32.143359375 6.4283203125-27.85693359375 27.85693359375l42.8572265625 156.427734375 315 315c17.1421875 17.1439453125 38.57080078125 17.1439453125 55.7138671875 0l85.714453125-85.71357421875c17.14306640625-17.14306640625 17.14306640625-38.5716796875 0-55.7138671875zM316.99970703124995 188.99970703125007l23.572265625 87.8572265625 64.28496093749999-64.28583984375-87.8572265625-23.57138671875zM449.85693359375 244.7144531250001l-77.14248046875001 77.14248046875001 167.14248046875 169.2861328125 79.28613281249999-79.28613281249999-169.2861328125-167.14248046875zM649.1427734375 448.28583984374995l-72.85693359375 72.85693359375 49.285546875 49.285546875c10.7138671875 12.85751953125 12.85751953125 12.85751953125 23.572265625 0l49.28466796875-49.285546875c12.85751953125-12.856640625 12.85751953125-10.7138671875 0-23.57138671875l-49.285546875-49.285546875z"  horiz-adv-x="1024" />

    
    <glyph glyph-name="zengjia" unicode="&#58940;" d="M511.9876953125 834C263.4795898437501 834 62 632.51953125 62 384.0123046875c0-248.53271484375 201.48046875000003-449.9876953125 449.9876953125-449.9876953125 248.53271484375 0 449.9876953125 201.48046875000003 449.9876953125 449.9876953125C962 632.5204101562499 760.51953125 834 511.9876953125 834z m270.896484375-477.94921874999994H561.763671875v-251.10615234375c0-20.69033203125-16.766894531250003-37.482714843749996-37.4818359375-37.482714843749996s-37.482714843749996 16.7923828125-37.482714843749996 37.482714843749996V356.05078125H233.14414062499998c-20.7158203125 0-37.4818359375 16.766894531250003-37.4818359375 37.4818359375s16.766894531250003 37.482714843749996 37.4818359375 37.482714843749996h253.65498046875V654.70927734375c0 20.7158203125 16.7677734375 37.482714843749996 37.482714843749996 37.482714843749996s37.4818359375-16.766894531250003 37.4818359375-37.482714843749996v-223.6693359375h221.1205078125c20.69033203125 0 37.482714843749996-16.766894531250003 37.482714843749996-37.4818359375S803.5745117187498 356.05078125 782.8841796875 356.05078125z"  horiz-adv-x="1024" />

    
    <glyph glyph-name="guanbi" unicode="&#58941;" d="M512 828.1065244444444c-245.2536888888889 0-444.1065244444444-198.85283555555554-444.1065244444444-444.1065244444444S266.7474488888889-60.10538666666662 512-60.10538666666662c245.32650666666666 0 444.1053866666666 198.85169777777776 444.1053866666666 444.1053866666666S757.3265066666667 828.1065244444444 512 828.1065244444444z m213.89880888888888-606.5379555555555c14.994773333333335-15.072142222222222 14.994773333333335-39.49112888888889 0-54.601955555555556-7.6117333333333335-7.497955555555555-17.483093333333333-11.307235555555557-27.359004444444444-11.307235555555557s-19.669902222222223 3.808142222222222-27.281635555555557 11.307235555555557L513.792 324.4430222222222 356.32583111111114 166.96661333333338c-7.6117333333333335-7.497955555555555-17.48764444444444-11.307235555555557-27.357866666666666-11.307235555555557-9.875911111111112 0-19.669902222222223 3.808142222222222-27.287324444444444 11.307235555555557-14.99591111111111 15.109688888888888-14.99591111111111 39.52981333333334 0 54.601955555555556l157.48664888888888 157.50371555555557L301.68746666666664 536.576c-15.002737777777778 15.072142222222222-15.002737777777778 39.492266666666666 0 54.601955555555556 15.071004444444444 15.039146666666666 39.48999111111111 15.039146666666666 54.63836444444444 0l157.46730666666664-157.48209777777777 167.3216 167.3363911111111c15.072142222222222 15.039146666666666 39.49112888888889 15.039146666666666 54.63950222222222 0 15.00046222222222-15.10855111111111 15.00046222222222-39.52981333333334 0-54.601955555555556l-167.34435555555555-167.35914666666665 157.48892444444445-157.5025777777778z"  horiz-adv-x="1024" />

    
    <glyph glyph-name="wancheng" unicode="&#58942;" d="M512 834C263.47255859375 834 62 632.52744140625 62 384s201.47255859375002-450 450-450 450 201.47255859375002 450 450S760.52744140625 834 512 834z m245.278125-337.3048828125L478.85380859374993 218.27255859374998c-10.9828125-10.9828125-28.791210937500004-10.9828125-39.7740234375 0L266.721875 390.62958984375c-10.9845703125 10.981933593749998-10.9845703125 28.791210937500004 0 39.7740234375l13.257421874999999 13.257421874999999c10.9845703125 10.9845703125 28.79296875 10.9845703125 39.77578125 0L458.96591796875003 304.4501953125l245.2763671875 245.2763671875c10.98369140625 10.9828125 28.79296875 10.9828125 39.77578125 0l13.257421874999999-13.257421874999999c10.986328125-10.98369140625 10.986328125-28.79033203125 0.0026367187499999997-39.7740234375z"  horiz-adv-x="1024" />

    
    <glyph glyph-name="jian-" unicode="&#58943;" d="M512-66c248.52832031249994 0 450 201.4716796875 450 450S760.5283203125 834 512 834 62 632.5283203125 62 384s201.4716796875-450 450-450zM230.75 395.14013671875C230.75 420.05361328125 250.7697265625 440.25 275.83085937500005 440.25h472.33828125C773.0667968749999 440.25 793.25 420.13710937499997 793.25 395.14013671875v-22.2802734375C793.25 347.9463867187501 773.2302734375 327.75 748.169140625 327.75H275.83085937500005C250.93320312499998 327.75 230.75 347.862890625 230.75 372.85986328125v22.2802734375z"  horiz-adv-x="1024" />

    
    <glyph glyph-name="rili-" unicode="&#58944;" d="M236 127.99968749999994h163.9996875V240H236v-112.00031249999999M732.0003125000001 808.0003125000001v-132c0-12 3.999375-16.0003125 15.999374999999999-16.0003125h24c12 0 16.0003125 4.000312500000001 16.0003125 16.0003125v132c0 12-4.000312500000001 15.999374999999999-16.0003125 15.999374999999999h-24c-12 0-15.999374999999999-12-15.999374999999999-15.999374999999999z m-496.0003125 0v-140.000625c0-3.999375 4.000312500000001-12 12-12h28.0003125c3.999375 0 12 4.000312500000001 12 12V808.0003125000001c0 3.999375-4.000312500000001 12-12 12H248c-7.999687499999999 3.999375-12 0-12-12z m0-516h163.9996875V403.99968750000005H236v-111.999375m436.0003125 0h111.999375V403.99968750000005H672.0003125000001v-111.999375m168 475.9996875v-79.9996875c0-48-36-80.000625-80.000625-80.000625-48 0-79.9996875 36-79.9996875 80.000625V768H344v-79.9996875c0-48-36-80.000625-79.9996875-80.000625-48 0-80.000625 36-80.000625 80.000625V768c-60 0-111.999375-52.0003125-111.999375-112.00031249999999v-603.999375c0-56.000625 51.999375-108 111.999375-108h660c60 0 112.00031249999999 51.999375 112.00031249999999 111.999375v600C951.9996874999999 720 900.0003125 768 840.0003125 768m51.999375-715.9996874999999c0-28.0003125-24-52.0003125-51.999375-52.0003125H176c-28.0003125 0-52.0003125 24-52.0003125 52.0003125V451.99968750000005c0 32.000625 24 52.0003125 52.0003125 52.0003125h664.0003125000001c27.999375 0 51.999375-24 51.999375-52.0003125v-399.999375m-435.999375 240H620V403.99968750000005H456.0003125v-111.999375m0-164.00062499999999H620V240H456.0003125v-112.00031249999999m216 0h111.999375V240H672.0003125000001v-112.00031249999999m0 0"  horiz-adv-x="1024" />

    
    <glyph glyph-name="gailan-" unicode="&#58945;" d="M801.61 589.008c-28.256 0-51.165-22.91-51.165-51.165 0-8.416 2.07-16.333 5.668-23.337L629.028 379.94399999999996a50.916 50.916 0 0 1-20.709 4.403c-7.54 0-14.676-1.674-21.122-4.603L457.176 514.9300000000001c3.467 6.9 5.465 14.665 5.465 22.914 0 28.255-22.908 51.165-51.165 51.165-28.256 0-51.165-22.91-51.165-51.165 0-8.584 2.14-16.66 5.876-23.763L242.023 380.14700000000005a50.947 50.947 0 0 1-20.285 4.2c-28.257 0-51.166-22.91-51.166-51.165s22.91-51.166 51.166-51.166c28.255 0 51.165 22.91 51.165 51.166 0 8.585-2.14 16.661-5.877 23.767l124.166 133.928a50.937 50.937 0 0 1 20.283-4.2c7.54 0 14.676 1.675 21.121 4.603l130.023-135.186c-3.467-6.899-5.466-14.665-5.466-22.913 0-28.256 22.91-51.166 51.165-51.166 28.257 0 51.165 22.91 51.165 51.166 0 8.414-2.069 16.333-5.668 23.334L780.903 491.08a50.906 50.906 0 0 1 20.706-4.404c28.256 0 51.166 22.91 51.166 51.166s-22.908 51.166-51.165 51.166zM902.39 794.857H117.516c-28.258 0-51.165-22.907-51.165-51.165v-613.984c0-28.257 22.907-51.165 51.165-51.165H902.39c28.257 0 51.165 22.908 51.165 51.165V743.692c0 28.258-22.907 51.165-51.165 51.165z m17.397-664.466c0-9.42-7.636-17.055-17.055-17.055H118.197c-9.419 0-17.055 7.635-17.055 17.055V744.033c0 9.42 7.636 17.055 17.055 17.055h784.536c9.42 0 17.055-7.636 17.055-17.055V130.39zM682.225 11.004999999999995H341.123c-9.419 0-17.056-7.978-17.056-17.396s7.637-17.397 17.056-17.397h341.101c9.419 0 17.056 7.978 17.056 17.397s-7.636 17.396-17.055 17.396z"  horiz-adv-x="1024" />

    
    <glyph glyph-name="xiangqing" unicode="&#58946;" d="M305.5 442.1c-16.4 0-29.6-13.3-29.6-29.6 0-16.4 13.3-29.6 29.6-29.6 16.4 0 29.6 13.3 29.6 29.6s-13.2 29.6-29.6 29.6z m0 177.8c-16.4 0-29.6-13.3-29.6-29.6s13.3-29.6 29.6-29.6c16.4 0 29.6 13.3 29.6 29.6s-13.2 29.6-29.6 29.6z m0-355.7c-16.4 0-29.6-13.3-29.6-29.6 0-16.4 13.3-29.6 29.6-29.6 16.4 0 29.6 13.3 29.6 29.6s-13.2 29.6-29.6 29.6z m415 177.9H424.1c-16.4 0-29.6-13.3-29.6-29.6 0-16.4 13.3-29.6 29.6-29.6h296.4c16.4 0 29.6 13.3 29.6 29.6s-13.2 29.6-29.6 29.6z m0 177.8H424.1c-16.4 0-29.6-13.3-29.6-29.6s13.3-29.6 29.6-29.6h296.4c16.4 0 29.6 13.3 29.6 29.6s-13.2 29.6-29.6 29.6z m88.9 177.9H216.6C151.1 797.8 98 744.7 98 679.2v-592.9c0-65.5 53.1-118.6 118.6-118.6h592.9c65.5 0 118.6 53.1 118.6 118.6V679.2c-0.1 65.5-53.2 118.6-118.7 118.6z m59.3-685.4c0-65.5-31.2-85.4-96.7-85.4H253.5c-65.5 0-96.2 19.9-96.2 85.4V655.8c0 65.5 37.5 82.7 103 82.7h505.3c65.5 0 103.1-17.6 103.1-83.1v-543zM720.5 264.20000000000005H424.1c-16.4 0-29.6-13.3-29.6-29.6 0-16.4 13.3-29.6 29.6-29.6h296.4c16.4 0 29.6 13.3 29.6 29.6s-13.2 29.6-29.6 29.6z"  horiz-adv-x="1024" />

    
    <glyph glyph-name="beizhu-" unicode="&#58948;" d="M165.36 774.9h513.26c41.75 0 47.89-28.31 47.89-28.31v-206.28L404.8 194l-76.13-181.69H164.13c-47.89 0-45.1 36.84-45.1 36.84V741.6800000000001c8.93 36.84 46.33 33.22 46.33 33.22z m485-97.93c0 14.72-16.24 26.65-36.27 26.65h-383c-20 0-36.28-11.93-36.28-26.65v-6.87c0-14.72 16.24-26.65 36.28-26.65h383c20 0 36.27 11.93 36.27 26.65V677z m0.15-130.77c0 14.72-16.24 26.65-36.28 26.65h-383c-20 0-36.27-11.93-36.27-26.65v-6.87c0-14.72 16.24-26.65 36.27-26.65h383c20 0 36.27 11.93 36.27 26.65v6.87z m-152.41-130c0 14.72-10.81 26.65-24.14 26.65H219.12c-13.33 0-24.14-11.93-24.14-26.65v-6.87c0-14.72 10.81-26.65 24.14-26.65H474c13.33 0 24.14 11.93 24.14 26.65v6.87z m4.9-403.89h186.68s38.07 1.23 36.84 62.62 0 185.41 0 185.41L503 12.309999999999945zM462.51 191.58000000000004l85.96-73.67L903.5 508.38l-81.21 68.76-359.78-385.56z m-33.15-38.06L511.27 86S406-9.57000000000005 360.6-9.57000000000005c0 0-20.88 14.51 68.76 163.09z"  horiz-adv-x="1024" />

    
    <glyph glyph-name="yinhangqia-" unicode="&#58949;" d="M944.466 42.019000000000005H79.507c-24.708 0-44.726 20.228-44.726 45.149V433.364h954.437v-346.196c0-24.921-20.017-45.149-44.752-45.149zM124.26 132.32000000000005h178.957v45.149H124.26v-45.149m447.392 135.477H124.26v-45.149h447.392v45.149M34.782 659.17c0 24.948 20.017 45.149 44.726 45.149h864.959c24.736 0 44.752-20.203 44.752-45.149v-135.477H34.782V659.17z"  horiz-adv-x="1024" />

    
    <glyph glyph-name="mingcheng-" unicode="&#58950;" d="M487.185178-127.90066100000001c-104.390252 3.803973-507.011366 58.073584-376.7233 195.763597 70.518495 74.414467 283.745966 70.495495 294.44789 192.854618 5.156963 58.898578-27.706801 81.862413-64.696537 119.585143-30.503781 29.173791-145.413958 205.916524-42.649694 190.492634 9.097935 88.188368 2.978979 203.64854 67.149519 268.918072C409.881732 885.641074 597.09939 861.18825 671.259858 896c11.18492-127.377087 81.634415-181.096702 57.616587-319.360711 96.346309 12.971907-11.962914-154.85589-43.887685-188.658648-35.545745-41.138705-76.041455-74.598465-74.597465-134.116038 2.290984-97.859299 241.41627-89.539358 318.763715-206.948517 82.481409-125.131103-367.739364-177.521728-441.970832-174.816747z"  horiz-adv-x="1024" />

    
    <glyph glyph-name="qiankelaiyuan-" unicode="&#58951;" d="M997.965 233.16999999999996c-10.711 24.99-25.283 46.648-43.7 64.962-18.421 18.335-40.202 32.83-65.325 43.495-25.114 10.67-51.748 15.99-79.883 15.99-28.134 0-54.753-5.32-79.887-15.99-25.114-10.665-47.048-25.16-65.807-43.495-18.765-18.314-33.506-39.976-44.227-64.962-10.711-24.975-16.077-51.482-16.077-79.457 0-27.986 5.366-54.487 16.077-79.473 10.721-24.98 25.462-46.812 44.227-65.475 18.754-18.657 40.688-33.315 65.807-43.985 25.129-10.665 51.738-15.98 79.887-15.98 28.13 0 54.774 5.315 79.883 15.98 25.123 10.67 46.904 25.328 65.326 43.985 18.416 18.668 32.988 40.495 43.699 65.475 10.721 24.99 16.082 51.482 16.082 79.473 0 27.975-5.36 54.482-16.082 79.457zM934.67 130.71900000000005c-6.697-5.335-14.745-7.998-24.125-7.998v2.007h-74.358v-70.968c0-9.329-3.005-17.331-9.042-24.003-6.02-6.67-13.721-10.004-23.117-10.004-9.38 0-16.737 3.323-22.097 10.004-5.366 6.672-8.034 14.67-8.034 24.003v70.968h-65.305c-9.396 0-17.434 2.304-24.126 6.984-6.702 4.654-10.06 11.663-10.06 20.977 0 9.354 3.358 17.341 10.06 24.018 6.692 6.65 14.73 9.978 24.126 9.978h65.305v68.982c0 9.308 2.668 17.331 8.034 23.982 5.365 6.661 12.718 10.005 22.097 10.005 9.396 0 17.096-3.344 23.117-10.005 6.032-6.65 9.042-14.669 9.042-23.982v-68.982h74.358c9.38 0 17.428-3.328 24.125-9.978 6.708-6.682 10.046-14.69 10.046-24.018 0-9.309-3.344-16.656-10.046-21.97zM535.04 165.827c0 50.61 17.116 98.232 47.237 139.827a54.707 54.707 0 0 0-0.676 6.548 103.276 103.276 0 0 0 2.627 27.449c2.795 14.99 8.397 25.646 16.793 31.938a1675.336 1675.336 0 0 0 31.488 22.948c5.602 4.198 10.67 10.05 15.222 17.551s8.571 15.15 12.068 22.948a762.962 762.962 0 0 1 10.496 28.8c8.397 1.802 16.445 5.1 24.146 9.902 6.298 4.199 12.247 9.902 17.843 17.096 5.596 7.199 9.093 17.398 10.496 30.597 1.398 9.605 0.702 17.7-2.099 24.3s-5.944 12-9.446 16.2c-4.204 4.802-9.447 8.698-15.75 11.698a414.019 414.019 0 0 1-4.193 72.003c-3.502 20.388-9.62 42.291-18.37 65.69-8.75 23.393-21.868 44.697-39.363 63.892-8.402 8.407-18.898 16.799-31.488 25.2-12.6 8.403-26.767 15.898-42.511 22.503-15.75 6.6-32.891 11.848-51.436 15.75s-37.965 5.846-58.255 5.846c-16.097 0-32.538-1.05-49.331-3.149-16.8-2.099-33.772-6.154-50.909-12.15-17.152-6-33.771-14.248-49.858-24.75-16.103-10.5-30.792-24.15-44.088-40.944a171.126 171.126 0 0 1-32.533-58.947c-6.999-21.898-11.894-42.45-14.7-61.65a561.27 561.27 0 0 1-4.193-68.387c-7.7-6.001-13.65-12.299-17.843-18.898-4.198-6-7.173-13.2-8.924-21.602s-0.87-17.694 2.626-27.893c3.503-10.2 8.05-18.15 13.645-23.85 5.602-5.693 11.198-10.05 16.799-13.05 6.292-3 12.59-4.798 18.888-5.397a762.721 762.721 0 0 1 10.5-28.8c3.498-7.797 7.522-15.452 12.069-22.947s9.62-13.343 15.221-17.552a843.735 843.735 0 0 0 31.488-24.745c9.79-8.1 15.396-19.051 16.789-32.85 0.701-9.595 1.05-18.293 1.05-26.096s-1.752-15.299-5.249-22.503-9.088-14.402-16.788-21.596c-7.7-7.199-18.893-14.705-33.592-22.507-18.893-10.194-40.412-17.992-64.553-23.394a912.722 912.722 0 0 1-69.801-18.447c-22.395-6.902-41.984-16.051-58.778-27.448S40.51 146.76 36.311 124.56399999999996c-6.298-38.999-7.521-70.794-3.671-95.395s9.272-39.301 16.271-44.094c4.199-3 14.173-6 29.917-9s35.164-6.001 58.255-9.002 48.46-5.852 76.098-8.545c27.638-2.698 55.634-5.1 83.968-7.199 28.345-2.104 55.808-3.906 82.402-5.401 26.593-1.5 50.032-2.248 70.328-2.248 20.29 0 43.91 0.594 70.85 1.802a2142.986 2142.986 0 0 1 83.451 5.402 4152.341 4152.341 0 0 1 49.572 4.47C580.536 8.799999999999955 535.04 83.32799999999997 535.04 165.827z m-49.48 182.82c-9.098-7.803-19.947-11.705-32.537-11.705-13.302 0-24.494 3.902-33.593 11.704-9.098 7.798-13.644 17.393-13.644 28.795s4.546 21.003 13.644 28.8c9.094 7.798 20.291 11.7 33.593 11.7 12.59 0 23.44-3.902 32.537-11.7 9.093-7.797 13.64-17.397 13.64-28.8s-4.547-20.997-13.64-28.795z m20.992 174.13c-10.49-8.1-15.39-15.749-14.694-22.947h0.005v-15.294c0-8.407-3.328-15.595-9.969-21.596-6.65-6-15.918-9.303-27.822-9.902-11.899 0.594-21.34 3.902-28.339 9.902s-10.85 12.293-11.545 18.893v24.294c0.696 13.799 6.645 25.8 17.843 36a351.498 351.498 0 0 0 36.208 28.794 654.26 654.26 0 0 1 35.692 26.547c10.839 8.704 16.271 18.75 16.271 30.152 0.702 15.001-5.77 27.448-19.42 37.35s-32.02 14.848-55.112 14.848c-11.197 0-21.514-2.406-30.96-7.198-9.452-4.803-17.5-10.799-24.146-18.002s-11.894-14.551-15.744-22.052-5.77-13.952-5.77-19.349c0-8.402-3.85-14.996-11.551-19.799-7.695-4.802-16.271-7.045-25.718-6.748-9.446 0.307-18.017 3-25.707 8.1-7.7 5.1-11.9 13.348-12.6 24.75 0 9.6 2.452 21.75 7.352 36.45s13.64 28.65 26.24 41.85c12.595 13.19 29.388 24.597 50.386 34.192 20.992 9.6 46.883 14.402 77.675 14.402 25.19 0 47.058-3.144 65.603-9.451 18.544-6.298 33.771-15.002 45.66-26.102 11.899-11.09 20.295-24.141 25.195-39.143 4.895-15.001 6.994-30.899 6.293-47.698-1.398-15.6-7.696-29.547-18.893-41.845a237.435 237.435 0 0 0-36.736-32.845 1388.262 1388.262 0 0 1-35.697-26.552z"  horiz-adv-x="1024" />

    
    <glyph glyph-name="zhangbuping" unicode="&#58947;" d="M658.25 519c56.25-123.75 135-185.625 247.5-253.125 5.625 0 5.625-5.625 5.625-11.25-28.125-90-78.75-163.125-151.875-219.375-61.875-45-123.75-73.125-196.875-84.375-11.25 0-22.5 0-33.75-5.625h-50.625c-16.875 0-28.125 0-45 5.625-106.875 22.5-196.875 73.125-264.375 163.125C112.625 181.5 84.5 249 73.25 327.75c0 11.25 0 22.5-5.625 33.75v50.625 5.625c0 16.875 5.625 39.375 5.625 56.25C101.375 580.875 152 665.25 236.375 732.75 298.25 777.75 365.75 805.875 438.875 811.5c11.25 0 22.5 0 33.75 5.625h56.25c16.875-5.625 39.375-5.625 56.25-5.625 5.625 0 5.625 0 5.625-5.625 5.625-50.625 11.25-95.625 22.5-146.25 5.625-11.25 5.625-28.125 11.25-45 0 0-73.125 39.375-101.25 33.75v39.375h-50.625v-33.75s-151.875-5.625-157.5-123.75c0 0-16.875-90 157.5-129.375V271.5s-67.5 11.25-78.75 90l-84.375-16.875s11.25-129.375 168.75-135v-45h50.625v45s157.5-5.625 157.5 123.75c0 101.25-157.5 135-157.5 135v112.5s39.375-11.25 56.25-73.125l73.125 11.25M956.375 384c-11.25-11.25-22.5-22.5-28.125-33.75-11.25-11.25-22.5-22.5-33.75-39.375l-16.875 16.875c11.25 11.25 22.5 22.5 28.125 39.375 11.25 16.875 28.125 33.75 39.375 50.625l5.625 5.625c5.625-11.25 5.625-22.5 5.625-39.375zM759.5 445.875l-16.875 16.875c45 56.25 95.625 118.125 140.625 174.375 5.625-5.625 5.625-11.25 11.25-16.875v-5.625c-28.125-33.75-50.625-61.875-78.75-95.625l-50.625-67.5-5.625-5.625zM708.875 530.25c-5.625 5.625-5.625 11.25-11.25 22.5v5.625c22.5 28.125 45 56.25 73.125 84.375 16.875 22.5 33.75 45 56.25 67.5l16.875-16.875c-45-50.625-90-106.875-135-163.125zM933.875 547.125c0-11.25 5.625-16.875 5.625-28.125v-5.625c-39.375-45-73.125-90-112.5-135l-5.625-5.625-16.875 16.875c45 56.25 84.375 106.875 129.375 157.5zM748.25 772.125c5.625-5.625 11.25-5.625 22.5-11.25-33.75-45-67.5-84.375-106.875-129.375-5.625 11.25-5.625 16.875-5.625 22.5v5.625c28.125 39.375 61.875 73.125 90 112.5zM635.75 744c0 11.25-5.625 22.5-5.625 28.125V777.75c5.625 11.25 16.875 16.875 22.5 28.125h5.625c5.625 0 11.25-5.625 22.5-5.625-11.25-16.875-28.125-33.75-45-56.25zM478.25 575.25v-101.25s-67.5 16.875-67.5 56.25c-5.625 39.375 50.625 45 67.5 45zM528.875 389.625V271.5s61.875 0 61.875 50.625c5.625 39.375-33.75 61.875-61.875 67.5z"  horiz-adv-x="1024" />

    
    <glyph glyph-name="weilianjie" unicode="&#58952;" d="M533.333333 861.866667C277.333333 861.866667 72.533333 657.066667 72.533333 401.066667s204.8-460.8 460.8-460.8 460.8 204.8 460.8 460.8S785.066667 861.866667 533.333333 861.866667zM593.066667 298.66666699999996l-98.133334-93.866667s-76.8-76.8-157.866666 0c-81.066667 76.8 0 157.866667 0 157.866667l115.2 115.2 17.066666-25.6L354.133333 341.33333300000004s-55.466667-55.466667 0-115.2c42.666667-46.933333 115.2 4.266667 115.2 4.266667l98.133334 89.6c4.266667 4.266667 8.533333 8.533333 12.8 8.533333 8.533333 0 17.066667-8.533333 17.066666-17.066666 0-4.266667-4.266667-8.533333-4.266666-12.8z m166.4 174.933333l-115.2-115.2-17.066667 25.6 115.2 115.2s51.2 55.466667 0 115.2c-42.666667 46.933333-115.2-8.533333-115.2-8.533333l-93.866667-89.6c-4.266667 0-8.533333-4.266667-17.066666-4.266667s-17.066667 8.533333-17.066667 17.066667c0 4.266667 0 8.533333 4.266667 8.533333L597.333333 631.4666669999999s76.8 76.8 162.133334 0c85.333333-72.533333 0-157.866667 0-157.866667z"  horiz-adv-x="1024" />

    
    <glyph glyph-name="yilianjie" unicode="&#58954;" d="M512 844.8C256 844.8 51.2 640 51.2 384S256-76.79999999999995 512-76.79999999999995 972.8 128 972.8 384 768 844.8 512 844.8zM490.666667 213.33333300000004L426.666667 149.33333300000004c-21.333333-21.333333-42.666667-25.6-76.8-25.6s-55.466667 4.266667-72.533334 25.6c-38.4 38.4-38.4 106.666667 0 153.6L341.333333 362.66666699999996c21.333333 21.333333 51.2 34.133333 76.8 34.133333 21.333333 0 34.133333-4.266667 51.2-12.8l-25.6-21.333333c-4.266667 0-12.8 8.533333-17.066666 8.533333-21.333333 0-38.4-8.533333-51.2-25.6l-64-68.266667c-34.133333-34.133333-34.133333-76.8 0-106.666666 12.8-12.8 38.4-25.6 51.2-25.6 17.066667 0 38.4 8.533333 51.2 25.6l64 68.266666c21.333333 21.333333 25.6 38.4 21.333333 64l25.6 25.6c12.8-38.4 8.533333-85.333333-34.133333-115.2zM597.333333 499.2c4.266667 4.266667 21.333333 4.266667 25.6 0 8.533333-8.533333 8.533333-21.333333 0-25.6L426.666667 277.33333300000004c0-8.533333-8.533333-8.533333-12.8-8.533333-12.8 0-17.066667 8.533333-17.066667 21.333333 0 8.533333 0 8.533333 4.266667 12.8L597.333333 499.2z m149.333334-29.866667L682.666667 405.333333c-25.6-25.6-51.2-38.4-76.8-38.4-12.8 0-34.133333 0-38.4 8.533334l25.6 25.6h12.8c21.333333 0 38.4 8.533333 51.2 25.6L725.333333 486.4c34.133333 34.133333 34.133333 76.8 0 106.666667-12.8 12.8-38.4 25.6-51.2 25.6s-51.2-12.8-55.466666-34.133334L554.666667 529.066667c-21.333333-21.333333-25.6-42.666667-12.8-76.8l-38.4-25.6c-17.066667 42.666667-12.8 89.6 25.6 128L597.333333 618.666667c21.333333 21.333333 42.666667 25.6 76.8 25.6s51.2-12.8 76.8-34.133334c38.4-34.133333 38.4-106.666667-4.266666-140.8z"  horiz-adv-x="1024" />

    
    <glyph glyph-name="xiaoxi11" unicode="&#58955;" d="M524.8 337.06666700000005c-8.533333-4.266667-17.066667-4.266667-25.6-4.266667-8.533333 0-25.6 0-34.133333 8.533333-8.533333 4.266667-12.8 8.533333-21.333334 12.8L256 546.133333v-307.2c0-12.8 8.533333-21.333333 12.8-21.333333h448c8.533333 0 12.8 8.533333 21.333333 21.333333V546.133333l-192-192c-8.533333-8.533333-12.8-8.533333-21.333333-17.066666zM490.666667 857.6C234.666667 857.6 29.866667 652.8 29.866667 396.8s204.8-460.8 460.8-460.8 460.8 204.8 460.8 460.8S746.666667 857.6 490.666667 857.6z m268.8-627.2c0-34.133333-17.066667-51.2-42.666667-51.2H268.8c-25.6 0-42.666667 25.6-42.666667 51.2V550.4c0 34.133333 21.333333 51.2 42.666667 51.2h448c25.6 0 42.666667-17.066667 42.666667-51.2v-320z m-268.8 132.266667c12.8 0 21.333333 0 34.133333 8.533333l192 196.266667v8.533333H277.333333l192-200.533333c4.266667-4.266667 8.533333-12.8 21.333334-12.8z"  horiz-adv-x="1024" />

    
    <glyph glyph-name="jinggao1" unicode="&#58956;" d="M512 832C264.533333 832 64 631.4666669999999 64 384S264.533333-64 512-64 960 136.53333299999997 960 384 759.466667 832 512 832z m0-768c-38.4 0-64 25.6-64 64 0 34.133333 25.6 64 64 64 34.133333 0 64-25.6 64-64s-25.6-64-64-64z m8.533333 192h-12.8c-68.266667 0-55.466667 51.2-55.466666 119.466667L384 584.5333330000001c0 68.266667 51.2 119.466667 119.466667 119.466667h21.333333c64 0 123.733333-51.2 123.733333-119.466667l-72.533333-204.8c0-72.533333 12.8-123.733333-55.466667-123.733333z"  horiz-adv-x="1024" />

    
    <glyph glyph-name="dianchi" unicode="&#58957;" d="M290.133333 243.20000000000005h409.6V473.6H290.133333v-230.4z m213.333334 550.4C273.066667 793.6 85.333333 605.866667 85.333333 375.46666700000003S273.066667-42.66666699999996 499.2-42.66666699999996s418.133333 187.733333 418.133333 413.866667c4.266667 234.666667-183.466667 422.4-413.866666 422.4z m285.866666-499.2h-42.666666v-93.866667H243.2V520.5333330000001h499.2V426.666667h42.666667v-132.266667z"  horiz-adv-x="1024" />

    
    <glyph glyph-name="xinhao" unicode="&#58958;" d="M503.466667 243.20000000000005c-4.266667 0-12.8 0-17.066667-8.533333-8.533333-12.8-8.533333-25.6 0-34.133334 0-4.266667 4.266667-4.266667 12.8-4.266666 4.266667 0 12.8 0 21.333333 4.266666 4.266667 0 4.266667 8.533333 4.266667 12.8 0 8.533333 0 12.8-4.266667 21.333334 0 8.533333-8.533333 8.533333-17.066666 8.533333z m-4.266667 550.4C268.8 793.6 85.333333 605.866667 85.333333 375.46666700000003S273.066667-42.66666699999996 503.466667-42.66666699999996s418.133333 187.733333 418.133333 418.133334c-4.266667 230.4-192 418.133333-422.4 418.133333z m-307.2-345.6c-8.533333-12.8-21.333333-12.8-25.6 0-8.533333 0-8.533333 8.533333-8.533333 12.8 0 8.533333 0 12.8 8.533333 12.8 42.666667 46.933333 93.866667 85.333333 153.6 102.4 55.466667 25.6 115.2 38.4 179.2 38.4 55.466667 0 115.2-8.533333 170.666667-34.133333l-29.866667-29.866667c-42.666667 12.8-89.6 25.6-140.8 25.6-115.2 0-221.866667-42.666667-307.2-128z m85.333333-89.6c-8.533333 0-8.533333 0-12.8 4.266667-8.533333 8.533333-8.533333 21.333333 0 34.133333 29.866667 29.866667 68.266667 59.733333 106.666667 72.533333 42.666667 21.333333 85.333333 25.6 128 25.6 25.6 0 51.2 0 76.8-4.266666l-34.133333-38.4h-42.666667c-76.8 0-153.6-25.6-213.333333-85.333334 4.266667-8.533333-4.266667-8.533333-8.533334-8.533333z m196.266667 17.066667l-81.066667-81.066667c0-8.533333-8.533333-8.533333-12.8-8.533333-4.266667 0-4.266667 0-12.8 8.533333-4.266667 0-4.266667 4.266667-4.266666 12.8 0 4.266667 0 12.8 4.266666 12.8 29.866667 29.866667 68.266667 51.2 106.666667 55.466667z m-110.933333-183.466667c-4.266667 0-4.266667 0-12.8 8.533333-8.533333 0-8.533333 4.266667-8.533334 12.8 0 4.266667 0 4.266667 8.533334 12.8l362.666666 392.533334c0 4.266667 8.533333 4.266667 12.8 4.266666 8.533333 0 8.533333 0 12.8-4.266666 4.266667-8.533333 4.266667-8.533333 4.266667-12.8 0-4.266667 0-4.266667-4.266667-12.8l-366.933333-388.266667c4.266667-12.8 0-12.8-8.533333-12.8z m183.466666-12.8c-12.8-12.8-25.6-21.333333-42.666666-21.333333s-34.133333 8.533333-42.666667 21.333333c-12.8 21.333333-21.333333 42.666667-12.8 64 8.533333 4.266667 12.8 12.8 12.8 21.333333 4.266667 4.266667 12.8 12.8 17.066667 12.8 25.6 12.8 51.2 4.266667 72.533333-12.8 12.8-12.8 21.333333-25.6 21.333333-38.4-8.533333-21.333333-17.066667-34.133333-25.6-46.933333z m85.333334 115.2c0-8.533333-4.266667-8.533333-12.8-8.533333-4.266667 0-4.266667 0-12.8 8.533333-25.6 17.066667-51.2 34.133333-76.8 38.4l34.133333 38.4c25.6-12.8 51.2-25.6 68.266667-51.2 8.533333 0 8.533333-8.533333 8.533333-12.8 0-8.533333 0-12.8-8.533333-12.8z m98.133333 68.266667c0-4.266667-4.266667-4.266667-12.8-4.266667-4.266667 0-4.266667 0-12.8 4.266667-25.6 25.6-55.466667 42.666667-89.6 64l25.6 34.133333c34.133333-12.8 64-38.4 89.6-64 4.266667-12.8 4.266667-25.6 0-34.133333z m102.4 85.333333c0-8.533333-8.533333-8.533333-12.8-8.533333-8.533333 0-8.533333 8.533333-12.8 8.533333-34.133333 34.133333-64 55.466667-102.4 76.8l34.133333 25.6c38.4-21.333333 72.533333-46.933333 102.4-76.8 0 0 4.266667-4.266667 0-12.8 0-4.266667 0-4.266667-8.533333-12.8z"  horiz-adv-x="1024" />

    
    <glyph glyph-name="danbao1" unicode="&#58959;" d="M512 802.133333c-230.4 0-418.133333-183.466667-418.133333-418.133333s183.466667-418.133333 418.133333-418.133333 418.133333 183.466667 418.133333 418.133333-187.733333 418.133333-418.133333 418.133333z m0-810.666666c-217.6 0-392.533333 174.933333-392.533333 392.533333S294.4 776.533333 512 776.533333s392.533333-174.933333 392.533333-392.533333-174.933333-392.533333-392.533333-392.533333zM396.8 576c25.6 25.6 64 42.666667 102.4 42.666667 38.4 0 76.8-4.266667 93.866667-25.6s34.133333-42.666667 38.4-76.8h64c-4.266667 51.2-25.6 89.6-64 119.466666-17.066667 21.333333-68.266667 38.4-132.266667 38.4S384 661.333333 345.6 614.4c-38.4-46.933333-55.466667-89.6-55.466667-162.133333V341.33333300000004c0-64 21.333333-119.466667 64-162.133333 42.666667-38.4 93.866667-64 162.133334-64 51.2 0 93.866667 8.533333 119.466666 21.333333 34.133333 21.333333 59.733333 34.133333 64 59.733334v204.8H512V341.33333300000004h119.466667v-128c-12.8-12.8-17.066667-17.066667-42.666667-25.6-21.333333-8.533333-42.666667-12.8-76.8-12.8-42.666667 0-85.333333 21.333333-106.666667 42.666667-34.133333 34.133333-42.666667 72.533333-42.666666 119.466667v110.933333c-4.266667 55.466667 8.533333 98.133333 34.133333 128z"  horiz-adv-x="1024" />

    
    <glyph glyph-name="xianfu1" unicode="&#58962;" d="M512 802.133333c-230.4 0-418.133333-183.466667-418.133333-418.133333s183.466667-418.133333 418.133333-418.133333 418.133333 183.466667 418.133333 418.133333-187.733333 418.133333-418.133333 418.133333z m0-810.666666c-217.6 0-392.533333 174.933333-392.533333 392.533333S294.4 776.533333 512 776.533333s392.533333-174.933333 392.533333-392.533333-174.933333-392.533333-392.533333-392.533333z m102.4 209.066666c-25.6-21.333333-64-34.133333-102.4-34.133333-34.133333 0-64 12.8-89.6 17.066667-25.6 21.333333-51.2 38.4-64 72.533333-8.533333 42.666667-17.066667 85.333333-17.066667 128 0 34.133333 4.266667 64 21.333334 102.4 8.533333 34.133333 21.333333 64 55.466666 76.8 25.6 12.8 55.466667 25.6 93.866667 25.6 34.133333 0 64-12.8 89.6-25.6 21.333333-21.333333 38.4-42.666667 59.733333-85.333333l64 21.333333c-21.333333 42.666667-38.4 76.8-72.533333 106.666667-38.4 34.133333-76.8 42.666667-132.266667 42.666666-46.933333 0-89.6-12.8-128-34.133333-42.666667-12.8-64-46.933333-93.866666-81.066667-21.333333-42.666667-21.333333-93.866667-21.333334-149.333333 0-51.2 12.8-93.866667 25.6-140.8 21.333333-42.666667 42.666667-76.8 85.333334-93.866667 34.133333-21.333333 85.333333-34.133333 140.8-34.133333 59.733333 0 102.4 21.333333 140.8 42.666667 38.4 25.6 64 72.533333 76.8 128l-64 21.333333c-21.333333-51.2-51.2-85.333333-68.266667-106.666667z"  horiz-adv-x="1024" />

    
    <glyph glyph-name="yufu1" unicode="&#58963;" d="M512 802.133333c-230.4 0-418.133333-183.466667-418.133333-418.133333s183.466667-418.133333 418.133333-418.133333 418.133333 183.466667 418.133333 418.133333-196.266667 418.133333-418.133333 418.133333z m0-810.666666c-217.6 0-392.533333 174.933333-392.533333 392.533333S294.4 776.533333 512 776.533333s392.533333-174.933333 392.533333-392.533333-174.933333-392.533333-392.533333-392.533333z m38.4 682.666666H409.6c-25.6-12.8-38.4-21.333333-38.4-46.933333v-490.666667c0-21.333333 12.8-34.133333 34.133333-34.133333s34.133333 12.8 34.133334 34.133333v179.2H554.666667c106.666667 8.533333 170.666667 64 183.466666 179.2-8.533333 106.666667-72.533333 166.4-187.733333 179.2z m-4.266667-298.666666h-102.4V605.866667h102.4c72.533333-8.533333 106.666667-42.666667 115.2-115.2-8.533333-68.266667-46.933333-106.666667-115.2-115.2z"  horiz-adv-x="1024" />

    
    <glyph glyph-name="fangdajing" unicode="&#58964;" d="M91.99999971 474c0-180 146.25-330.00000029 330.00000029-330.00000029s330.00000029 146.25 330.00000029 330.00000029c0 180-146.25 330.00000029-330.00000029 330.00000029S91.99999971 657.75000029 91.99999971 474z m52.50000058 0c0 153.74999971 123.75 277.49999971 277.49999971 277.49999971S699.49999971 627.74999971 699.49999971 474 575.74999971 196.50000029 422 196.50000029s-277.49999971 123.75-277.49999971 277.49999971zM643.24999971 271.5L586.99999971 233.99999971l247.5-243.74999971c11.25-11.25 26.25000029-18.74999971 41.25000058-18.74999971 15.00000029 0 29.99999971 7.49999971 41.24999971 18.74999971 11.25 11.25 18.74999971 26.25000029 18.74999971 41.24999971s-7.49999971 29.99999971-18.74999971 41.25000058l-243.74999971 247.5-37.50000029-56.25m-375.00000029 86.24999971l26.25000029 29.99999971c-45 48.75000029-45 131.24999971 0 180l-26.25000029 33.75c-63.74999971-67.5-63.74999971-176.24999971 0-243.74999971z"  horiz-adv-x="1024" />

    
    <glyph glyph-name="danxuankuang" unicode="&#58965;" d="M512 721.5c185.625 0 337.5-151.875 337.5-337.5s-151.875-337.5-337.5-337.5-337.5 151.875-337.5 337.5 151.875 337.5 337.5 337.5m0 28.125C309.5 749.625 146.375 586.5 146.375 384s163.125-365.625 365.625-365.625 365.625 163.125 365.625 365.625S714.5 749.625 512 749.625z"  horiz-adv-x="1024" />

    
    <glyph glyph-name="danxuankuangxuanzhong" unicode="&#58966;" d="M523.25 710.25c185.625 0 337.5-151.875 337.5-337.5s-151.875-337.5-337.5-337.5-337.5 151.875-337.5 337.5 151.875 337.5 337.5 337.5m0 22.5c-202.5 0-365.625-163.125-365.625-365.625s163.125-365.625 365.625-365.625 365.625 163.125 365.625 365.625-163.125 365.625-365.625 365.625zM523.25 372.75m-213.75 0a213.75 213.75 0 1 1 427.5 0 213.75 213.75 0 1 1-427.5 0ZM523.25 564c106.875 0 196.875-90 196.875-196.875s-90-196.875-196.875-196.875-196.875 90-196.875 196.875 90 196.875 196.875 196.875m0 33.75c-123.75 0-225-101.25-225-225s101.25-225 225-225 225 101.25 225 225-95.625 225-225 225z"  horiz-adv-x="1024" />

    
    <glyph glyph-name="duoxuankuangxuanzhong" unicode="&#58967;" d="M828.40625 674.0390625c15.8203125 0 26.3671875-10.546875 26.3671875-26.3671875v-580.078125c0-15.8203125-10.546875-26.3671875-26.3671875-26.3671875H248.328125c-15.8203125 0-26.3671875 10.546875-26.3671875 26.3671875V647.671875c0 15.8203125 10.546875 26.3671875 26.3671875 26.3671875h580.078125m0 26.3671875H248.328125c-26.3671875 0-52.734375-26.3671875-52.734375-52.734375v-580.078125c0-31.640625 26.3671875-52.734375 52.734375-52.734375h580.078125c31.640625 0 52.734375 21.09375 52.734375 52.734375V647.671875c0 26.3671875-21.09375 52.734375-52.734375 52.734375zM765.125 515.8359375c-5.2734375 5.2734375-15.8203125 10.546875-21.09375 10.546875-10.546875 0-21.09375-5.2734375-26.3671875-10.546875l-216.2109375-242.578125-137.109375 116.015625c-10.546875 5.2734375-15.8203125 10.546875-26.3671875 10.546875-21.09375 0-42.1875-15.8203125-42.1875-42.1875 0-10.546875 5.2734375-21.09375 15.8203125-26.3671875l158.203125-142.3828125c5.2734375-5.2734375 15.8203125-10.546875 26.3671875-10.546875s21.09375 5.2734375 26.3671875 10.546875v5.2734375l242.578125 274.21875c5.2734375 5.2734375 10.546875 10.546875 10.546875 21.09375s-5.2734375 21.09375-10.546875 26.3671875z"  horiz-adv-x="1024" />

    
    <glyph glyph-name="duoxuankuangweixuanzhong" unicode="&#58968;" d="M828.40625 674.0390625c15.8203125 0 26.3671875-10.546875 26.3671875-26.3671875v-580.078125c0-15.8203125-10.546875-26.3671875-26.3671875-26.3671875H248.328125c-15.8203125 0-26.3671875 10.546875-26.3671875 26.3671875V647.671875c0 15.8203125 10.546875 26.3671875 26.3671875 26.3671875h580.078125m0 26.3671875H248.328125c-26.3671875 0-52.734375-26.3671875-52.734375-52.734375v-580.078125c0-31.640625 26.3671875-52.734375 52.734375-52.734375h580.078125c31.640625 0 52.734375 21.09375 52.734375 52.734375V647.671875c0 26.3671875-21.09375 52.734375-52.734375 52.734375z"  horiz-adv-x="1024" />

    
    <glyph glyph-name="shangjiantou" unicode="&#58969;" d="M913.066667 209.06666700000005L597.333333 580.266667c-17.066667 21.333333-38.4 34.133333-55.466666 34.133333-25.6 0-42.666667-12.8-55.466667-34.133333L170.666667 209.06666700000005c-12.8-12.8-12.8-34.133333 0-42.666667 12.8-12.8 25.6-12.8 38.4 0l311.466666 371.2c8.533333 8.533333 12.8 12.8 25.6 12.8 8.533333 0 21.333333-8.533333 25.6-12.8l298.666667-371.2c12.8-12.8 25.6-12.8 38.4 0 4.266667 4.266667 4.266667 12.8 4.266667 25.6 4.266667 4.266667 4.266667 8.533333 0 17.066667z"  horiz-adv-x="1024" />

    
    <glyph glyph-name="caiwubaobiao" unicode="&#58970;" d="M862.6859375 664.0003125000001L737.3665625 775.9940625c-5.810625 5.120625-13.7090625 8.00625001-21.9 8.00625H183.21874999c-17.23875001 0-31.21875001-12.45374999-31.21874999-27.8175V11.821874999999977c0-15.388125 13.9790625-27.823125 31.21875001-27.82312501h657.42562499c17.23875001 0 31.355625 15.418125 31.355625 30.80625001V644.165625c0 7.4653125-3.37124999 14.5846875-9.3140625 19.8346875zM679.505 320.4675c-8.3578125 14.2125-19.4165625 26.3859375-33.2109375 36.478125-13.52624999 10.0059375-29.0625 18.489375-46.3284375 25.2815625-17.4 6.7725-34.6171875 12.9346875-51.975 18.534375l4.16812499 122.1375c7.805625-2.3034375 14.458125-5.1028125 20.11406251-8.445 5.53125001-3.2296875 10.2928125-6.0084375 14.26593749-8.355 6.080625-4.2778125 12.646875-7.9659375 19.65656251-11.28375 7.0153125-3.298125 14.9625-4.903125 23.870625-4.903125 15.1096875 0 25.7353125 3.4284375 32.1721875 10.245 6.466875 6.70124999 9.6478125 15.4921875 9.6478125 26.2575 0 5.1628125-2.4890625 11.28374999-7.48875 18.61875-5.053125 7.2478125-12.451875 14.4965625-22.220625 21.74531249-9.79125001 7.228125-22.05 14.0840625-36.8634375 20.4-14.65124999 6.2934375-32.0146875 11.023125-51.4753125 14.38687501l1.65093749 35.026875c0 8.938125-3.46875001 15.733125-10.48874999 20.4-6.916875 4.66125001-14.5078125 7.0078125-22.5515625 7.0078125-8.094375 0-15.748125-2.3465625-22.54875-7.0078125-7.0640625-4.6678125-10.44375001-11.461875-10.44375-20.4l-0.92718751-31.5553125c-49.730625-2.3184375-88.273125-15.34125001-115.47187499-38.97375-27.4125-23.6578125-41.055-54.189375-41.055-91.56 0-19.63875001 4.23374999-36.5015625 12.9496875-50.5415625 8.6896875-14.0409375 20.060625-26.0840625 34.374375-36.13312501 14.1796875-10.0875 30.10125001-18.61875001 47.6465625-25.63124999 17.52374999-7.03125001 35.405625-13.56 53.14874999-19.6565625l-4.16437499-124.224375c-21.2146875 5.600625-37.7071875 13.3059375-49.321875 23.15625-6.2221875 4.6659375-12.946875 8.9878125-20.154375 12.9375-7.2553125 3.991875-15.733125 6.181875-25.1859375 6.72375-28.9940625 0-43.50374999-10.97625001-43.50375-33.024375 0-11.20125001 4.261875-21.3796875 13.003125-30.45 8.6221875-9.2015625 19.7015625-17.12624999 33.08718749-23.915625 13.38-6.7921875 28.153125-12.519375 44.33906251-17.2096875 16.1615625-4.6434375 31.6228125-8.1590625 45.99-10.48125l-0.69656251-30.9225c0-9.3778125 3.4725-16.235625 10.43906251-20.7253125 7.0171875-4.430625 14.510625-6.661875 22.55625-6.661875 8.090625 0 15.7978125 2.23125001 22.71375 6.661875 6.9440625 4.490625 10.3921875 11.3484375 10.3921875 20.7253125l0.885 27.36562499c47.3540625 3.2521875 84.4659375 16.0565625 111.403125 38.27812501 26.71124999 22.2225 40.0996875 51.54375001 40.0996875 88.08375-0.0028125 20.1421875-4.12124999 37.28625001-12.4978125 51.609375z m-196.725 103.4934375c-15.73125001 6.5334375-28.3003125 13.8675-37.8028125 22.0921875-9.4096875 8.221875-14.315625 18.8596875-14.315625 31.965 0 14.9728125 5.0971875 26.8903125 15.1509375 35.7665625 10.05375001 8.896875 23.53125001 14.32124999 40.24874999 16.1446875l-3.28124999-105.9684375z m97.4165625-194.443125c-9.219375-7.944375-21.8615625-13.108125-38.0475-15.410625l3.3290625 103.8628125c14.48624999-6.571875 26.195625-14.1703125 35.17312499-22.84875001 8.9784375-8.6184375 13.426875-19.014375 13.42687501-31.20937499 0.0009375-15.016875-4.715625-26.3859375-13.8815625-34.3940625zM831.284375 24l-639.166875-0.6103125 0.418125 720.4171875 479.46562501 0.193125v-105.79875001c0-9.2015625 6.178125-14.20125001 16.55718749-14.20124999l142.726875-0.193125V24z"  horiz-adv-x="1024" />

    
    <glyph glyph-name="tongji-1" unicode="&#58971;" d="M569.18383789 447.77563477s2.63671875 336.67602539 0 336.67602539c192.48046875 0 334.53369141-142.95959473 334.53369141-336.67602539 0.08239747-1.15356445-334.53369141 0-334.53369141 0z m306.76574708-69.04907227c0-201.37939453-162.24060059-364.77355957-362.38403322-364.77355957S151.09912109 177.26477050000005 151.09912109 378.7265625 313.33972167 743.50012207 513.4831543 743.50012207c9.39331055 0 18.62182617-0.74157715 27.93273926-1.40075684v-322.33886718h332.39135741c1.31835938-13.01879883 2.14233398-27.76794434 2.142334-41.03393555z m-29.66308595 11.20605469H513.4831543v325.4699707c-184.73510742 0-334.53369141-150.70495606-334.53369141-336.67602539S328.74804687 42.05053711000005 513.4831543 42.05053711000005s334.53369141 150.70495606 334.5336914 336.67602539c0 36.17248536-1.73034668 11.20605469-1.73034668 11.20605469z"  horiz-adv-x="1024" />

    
    <glyph glyph-name="jiahao1" unicode="&#58973;" d="M841.99466667 414.432l-292.34773334-0.04586667-0.0448 292.34773334c-0.00426667 24.11306667-19.55413333 43.65866667-43.6672 43.6544s-43.65866667-19.55413333-43.6544-43.6672l0.04586667-292.34666667-292.34666667-0.0448c-24.11413333-0.0032-43.65866667-19.55413333-43.6544-43.6672 0.0032-24.11413333 19.55413333-43.65866667 43.6672-43.6544l292.34666667 0.0448 0.04586667-292.3456c0.0032-24.11413333 19.5552-43.65866667 43.66826666-43.6544s43.65866667 19.55413333 43.6544 43.6672l-0.0448 292.3456 292.3456 0.0448c24.11306667 0.0032 43.6576 19.55306667 43.6544 43.6672s-19.55626667 43.65653333-43.66826666 43.65333333z"  horiz-adv-x="1024" />

    
    <glyph glyph-name="piliangcaozuo" unicode="&#58974;" d="M468.05496216 703.9221496600001c-9.66851807 9.66769409-24.60964966 9.66769409-34.27734375 0L257.99581909 525.5036315899999 179.7734375 605.484375a24.69699097 24.69699097 0 0 1-34.27734375 0.87918091 24.69699097 24.69699097 0 0 1-0.87918091-34.27734375l94.921875-97.55859375c1.75836182-1.75836182 3.51589966-2.63671875 5.2734375-3.51589966 0.87918091-0.87918091 1.75836182-1.75753784 2.63671875-1.75753784 2.63671875-0.87918091 6.15261841-1.75836182 8.78933716-1.75836182s6.15261841 0.87918091 8.78933716 1.75836182c0.87835693 0 1.75753784 0.87835693 2.63671875 1.75753784 1.75753784 0.87918091 3.51507568 1.75753784 5.2734375 3.51589966l193.35882568 195.1171875c11.42605591 9.66769409 11.42605591 24.60882568 1.75836182 34.27734375zM459.265625 348.84347534000005H154.28543091c-14.94195557 0-27.24636841-12.30441284-27.24636841-27.24554443v-304.98101807c0-14.94113159 12.30441284-27.24554443 27.24636841-27.24554443H459.265625c14.94113159 0 27.24636841 12.30441284 27.24636841 27.24554443V321.59793090999995c0 14.94113159-12.30523682 27.24554443-27.24636841 27.24554443z m-31.640625-303.22265625H185.92605591V291.71484375h242.578125L427.625 45.620819090000055z m442.08956909 303.22265625H564.734375c-14.94113159 0-27.24636841-12.30441284-27.24636841-27.24554443v-304.98101807c0-14.94113159 12.30523682-27.24554443 27.24636841-27.24554443h304.98019409c14.94195557 0 27.24636841 12.30441284 27.24636841 27.24554443V321.59793090999995c0 14.94113159-12.30441284 27.24554443-27.24636841 27.24554443z m-31.640625-303.22265625H596.375V291.71484375h242.578125v-246.09402466z m31.640625 733.0078125H564.734375c-14.94113159 0-27.24636841-12.30441284-27.24636841-27.24554443v-304.98101807c0-14.94113159 12.30523682-27.24554443 27.24636841-27.24554443h304.98019409c14.94195557 0 27.24636841 12.30441284 27.24636841 27.24554443V751.3830871600001c0 14.94113159-12.30441284 27.24554443-27.24636841 27.24554443zM838.07394409 476.28515625H596.375V722.3791809100001h242.578125V476.28515625z"  horiz-adv-x="1024" />

    
    <glyph glyph-name="xinxi" unicode="&#58975;" d="M2028.903 826.855H1133.15c-58.938 0-106.68-47.742-106.68-106.68v-673.996c0-58.938 47.742-106.516 106.68-106.516h895.753c58.938 0 106.68 47.743 106.68 106.516V720.175c-0.164 58.938-47.742 106.68-106.68 106.68z m-16.134-73.919l-420.96-445.324-439.891 445.324h860.851z m2.14-739.354h-867.93c-25.683 0-46.59 20.908-46.59 46.59V699.925l492.738-498.665 468.537 495.702v-636.79c-0.164-25.682-20.908-46.59-46.755-46.59z m0 0"  horiz-adv-x="3161" />

    
    </font>
</defs>
</svg>
